<svg width="40" height="41" viewBox="0 0 40 41" fill="none" xmlns="http://www.w3.org/2000/svg">
<g clip-path="url(#clip0_0_677)">
<path d="M8.36541 25.5172L0.170176 39.025C-0.304043 39.8064 0.261035 40.8047 1.17158 40.8047H19.9981L10.3683 25.5172C9.9115 24.7648 8.81885 24.7674 8.36541 25.5172Z" fill="#525B58"/>
<path d="M39.8267 39.025L31.6314 25.5172C31.1779 24.7674 30.0853 24.7648 29.6285 25.5172L19.9979 40.8047H38.8253C39.7358 40.8047 40.3009 39.8064 39.8267 39.025Z" fill="#525B58"/>
<path d="M17.4567 18.1352C17.9527 17.9594 18.505 18.1359 18.8073 18.5672L19.9986 20.2664L21.1891 18.5672C21.4914 18.1359 22.0437 17.9594 22.5397 18.1352C22.5561 18.1406 23.585 18.5047 24.9903 19.0078L21.1703 12.4604V9.54406H28.2453C29.2412 9.54406 29.7806 8.50461 29.1421 7.82781L27.4322 6.01484L29.1422 4.20188C29.7823 3.52336 29.2386 2.48563 28.2454 2.48563H21.1704V1.97656C21.1704 1.32937 20.6458 0.804688 19.9987 0.804688C19.3516 0.804688 18.827 1.32937 18.827 1.97656V8.49969V12.4577L15.0046 19.0078C16.4107 18.5055 17.4403 18.1406 17.4567 18.1352Z" fill="#525B58"/>
<path d="M12.3705 24.2986C12.3713 24.3009 12.372 24.3017 12.372 24.3017L19.9986 36.408C28.0282 23.6617 27.7104 24.1505 27.872 23.9462V23.9455C27.0163 22.4802 27.2698 22.9143 26.8283 22.158C25.4933 21.6751 24.0325 21.1517 22.5967 20.6423L20.9578 22.9806C20.5024 23.6173 19.5283 23.6666 19.0385 22.9806L17.3996 20.6423C15.9646 21.1517 14.5031 21.6751 13.1673 22.158L12.1244 23.9447C12.2027 24.0433 12.3177 24.2205 12.3705 24.2986Z" fill="#525B58"/>
</g>
<defs>
<clipPath id="clip0_0_677">
<rect width="40" height="40" fill="white" transform="translate(-0.00146484 0.804688)"/>
</clipPath>
</defs>
</svg>
