<svg width="40" height="41" viewBox="0 0 40 41" fill="none" xmlns="http://www.w3.org/2000/svg">
<path d="M36.2485 19.5547H31.2485C31.2485 23.0007 34.0525 25.8047 37.4985 25.8047V20.8047C37.4985 20.1144 36.9395 19.5547 36.2485 19.5547Z" fill="#525B58"/>
<path d="M31.2485 38.3047H36.2485C36.9395 38.3047 37.4985 37.745 37.4985 37.0547V32.0547C34.0525 32.0547 31.2485 34.8586 31.2485 38.3047Z" fill="#525B58"/>
<path d="M2.49854 32.0547V37.0547C2.49854 37.745 3.05823 38.3047 3.74854 38.3047H8.74854C8.74854 34.8586 5.94458 32.0547 2.49854 32.0547Z" fill="#525B58"/>
<path d="M29.9985 19.5547H9.99854C9.99854 23.6904 6.63428 27.0547 2.49854 27.0547V30.8047C6.63428 30.8047 9.99854 34.1689 9.99854 38.3047H29.9985C29.9985 34.1689 33.3628 30.8047 37.4985 30.8047V27.0547C33.3628 27.0547 29.9985 23.6904 29.9985 19.5547ZM19.9985 28.3047C21.3773 28.3047 22.4985 29.4259 22.4985 30.8047C22.4985 31.9664 21.6988 32.9365 20.6235 33.216V33.9297C20.6235 34.2751 20.344 34.5547 19.9985 34.5547C19.6531 34.5547 19.3735 34.2751 19.3735 33.9297V33.2159C18.2986 32.9364 17.4985 31.9663 17.4985 30.8047C17.4985 30.4592 17.7781 30.1797 18.1235 30.1797C18.469 30.1797 18.7485 30.4592 18.7485 30.8047C18.7485 31.4938 19.3094 32.0547 19.9985 32.0547C20.6876 32.0547 21.2485 31.4938 21.2485 30.8047C21.2485 30.1156 20.6876 29.5547 19.9985 29.5547C18.6198 29.5547 17.4985 28.4335 17.4985 27.0547C17.4985 25.893 18.2982 24.9229 19.3735 24.6434V23.9297C19.3735 23.5842 19.6531 23.3047 19.9985 23.3047C20.344 23.3047 20.6235 23.5842 20.6235 23.9297V24.6435C21.6985 24.923 22.4985 25.893 22.4985 27.0547C22.4985 27.4001 22.219 27.6797 21.8735 27.6797C21.5281 27.6797 21.2485 27.4001 21.2485 27.0547C21.2485 26.3656 20.6876 25.8047 19.9985 25.8047C19.3094 25.8047 18.7485 26.3656 18.7485 27.0547C18.7485 27.7438 19.3094 28.3047 19.9985 28.3047Z" fill="#525B58"/>
<path d="M8.74854 19.5547H3.74854C3.05823 19.5547 2.49854 20.1144 2.49854 20.8047V25.8047C5.94458 25.8047 8.74854 23.0007 8.74854 19.5547Z" fill="#525B58"/>
<path d="M9.99854 14.5547C9.99854 13.8643 9.43892 13.3047 8.74854 13.3047H6.24854C5.55815 13.3047 4.99854 13.8643 4.99854 14.5547V18.3047H9.99854V14.5547Z" fill="#525B58"/>
<path d="M16.2485 12.0547C16.2485 11.3643 15.6889 10.8047 14.9985 10.8047H12.4985C11.8082 10.8047 11.2485 11.3643 11.2485 12.0547V18.3047H16.2485V12.0547Z" fill="#525B58"/>
<path d="M22.4985 9.55469C22.4985 8.8643 21.9389 8.30469 21.2485 8.30469H18.7485C18.0582 8.30469 17.4985 8.8643 17.4985 9.55469V18.3047H22.4985V9.55469Z" fill="#525B58"/>
<path d="M28.7485 7.05469C28.7485 6.3643 28.1889 5.80469 27.4985 5.80469H24.9985C24.3082 5.80469 23.7485 6.3643 23.7485 7.05469V18.3047H28.7485V7.05469Z" fill="#525B58"/>
<path d="M34.9985 4.55469C34.9985 3.8643 34.4389 3.30469 33.7485 3.30469H31.2485C30.5582 3.30469 29.9985 3.8643 29.9985 4.55469V18.3047H34.9985V4.55469Z" fill="#525B58"/>
</svg>
