<svg width="40" height="41" viewBox="0 0 40 41" fill="none" xmlns="http://www.w3.org/2000/svg">
<path fill-rule="evenodd" clip-rule="evenodd" d="M9.96929 34.9457L11.43 34.1024C11.5836 34.0142 11.7583 33.9963 11.9169 34.0387L21.5076 36.6065C22.7164 36.9305 23.8598 36.7841 24.9287 36.1262C29.3358 33.413 33.7437 30.7008 38.1506 27.9872C38.8209 27.5745 38.9077 26.4473 38.5105 25.8073C37.6345 24.3959 35.2082 25.5709 34.2 26.158L26.9142 30.4016C25.7803 31.0619 24.5298 31.2623 23.2396 31.0452C21.2476 30.7212 19.3877 30.1274 17.4521 29.6087C17.1077 29.5167 16.903 29.1628 16.995 28.8183C17.087 28.4738 17.441 28.2691 17.7855 28.3612C19.3612 28.7833 20.923 29.2908 22.5204 29.621C23.3318 29.7203 24.0013 29.4643 24.2265 28.6239C24.4308 27.8614 23.9499 27.1429 23.2298 26.8934C21.0417 26.4928 18.9181 25.7251 17.2483 25.1214C14.828 24.2465 14.1809 24.0444 11.7949 25.4257L6.36179 28.5713L9.96929 34.9457ZM4.09281 27.1801L10.103 37.7996C10.218 38.0034 10.1434 38.2671 9.93999 38.3823C9.27476 38.7703 8.54187 39.1354 7.89539 39.5394C7.69148 39.6545 7.42781 39.5798 7.31273 39.3765L1.30281 28.7573C1.18757 28.5537 1.26234 28.2893 1.46562 28.1743L3.51023 27.0171C3.71406 26.902 3.97773 26.9767 4.09281 27.1801ZM4.10312 29.0702C4.04484 28.6714 3.67421 28.3953 3.27539 28.4537C2.87656 28.5119 2.60046 28.8826 2.65882 29.2814C2.7171 29.6802 3.08773 29.9563 3.48656 29.898C3.88539 29.8397 4.16148 29.4691 4.10312 29.0702ZM17.5173 7.15445V15.5092H14.9866V7.15445H13.8837C13.5716 7.15445 13.3858 6.80906 13.5577 6.54867L15.9259 2.96077C16.0801 2.72718 16.4237 2.72718 16.5779 2.96077L18.9462 6.54867C19.118 6.80906 18.9322 7.15445 18.6201 7.15445H17.5173ZM26.3312 11.2005C30.0389 11.2005 33.0447 14.2062 33.0447 17.914C33.0447 21.6217 30.0389 24.6275 26.3312 24.6275C22.6234 24.6275 19.6177 21.6217 19.6177 17.914C19.6177 14.2062 22.6234 11.2005 26.3312 11.2005ZM28.8838 15.6328C28.5337 14.7991 27.8384 14.2358 26.9562 14.0525V13.6656C26.9562 13.3205 26.6763 13.0406 26.3312 13.0406C25.986 13.0406 25.7062 13.3205 25.7062 13.6656V14.0617C24.5953 14.3052 23.7208 15.1697 23.7788 16.3641C23.8458 17.7437 25.0362 18.3078 26.2372 18.505C26.8865 18.6116 27.8432 18.8365 27.8619 19.6543C27.8781 20.3391 26.9551 20.577 26.4042 20.5901C25.7137 20.6066 24.9638 20.2967 24.7829 19.5709C24.7006 19.2365 24.3629 19.0321 24.0285 19.1143C23.6941 19.1966 23.4898 19.5343 23.5719 19.8687C23.8322 20.9124 24.6794 21.5777 25.7061 21.7752V22.1621C25.7061 22.5073 25.9859 22.7871 26.3311 22.7871C26.6762 22.7871 26.9561 22.5073 26.9561 22.1621V21.7872C28.084 21.5987 29.1369 20.8834 29.1069 19.6249C29.0703 18.0902 27.7647 17.4923 26.4373 17.2744C25.892 17.1849 25.0568 16.9848 25.0239 16.3054C24.9957 15.7241 25.4823 15.376 26.0001 15.2718C26.7112 15.1286 27.4395 15.4207 27.7315 16.1161C27.8649 16.4343 28.2312 16.5841 28.5494 16.4505C28.8676 16.3173 29.0173 15.951 28.8838 15.6328ZM37.128 6.44687H26.9421C26.0508 6.44687 25.3215 5.71765 25.3215 4.82632V3.63648C25.3215 2.74515 26.0508 2.01593 26.9421 2.01593H37.128C38.0193 2.01593 38.7485 2.74515 38.7485 3.63648V4.82624C38.7485 5.71757 38.0192 6.44687 37.128 6.44687ZM37.128 16.9516H34.2366C34.2746 17.2672 34.2947 17.5882 34.2947 17.914C34.2947 19.1573 34.0095 20.334 33.5012 21.3825H37.128C38.0193 21.3825 38.7485 20.6533 38.7485 19.7619V18.5722C38.7485 17.6809 38.0192 16.9516 37.128 16.9516ZM37.128 16.4039C38.0193 16.4039 38.7485 15.6747 38.7485 14.7834V13.5936C38.7485 12.7023 38.0192 11.973 37.128 11.973H31.6333C32.909 13.1126 33.8156 14.6567 34.1511 16.4039H37.128ZM37.128 6.99452H26.9421C26.0508 6.99452 25.3215 7.72374 25.3215 8.61507V9.80484C25.3215 9.87515 25.326 9.94445 25.3348 10.0124C25.6612 9.97163 25.9937 9.95046 26.3312 9.95046C28.0524 9.95046 29.6462 10.4967 30.9486 11.4254H37.128C38.0193 11.4254 38.7485 10.6962 38.7485 9.80484V8.61507C38.7485 7.72374 38.0192 6.99452 37.128 6.99452Z" fill="#525B58"/>
</svg>
