<svg width="40" height="41" viewBox="0 0 40 41" fill="none" xmlns="http://www.w3.org/2000/svg">
<path d="M20.7111 16.1838L19.6052 13.9427L18.4993 16.1838C18.3854 16.4143 18.1655 16.5742 17.911 16.6111L15.4379 16.9705L17.2275 18.7149C17.4115 18.8944 17.4956 19.1529 17.4522 19.4064L17.0297 21.8695L19.2417 20.7066C19.3554 20.6467 19.4804 20.6169 19.6052 20.6169C19.7301 20.6169 19.855 20.6468 19.9687 20.7066L22.1808 21.8695L21.7583 19.4064C21.7148 19.153 21.7989 18.8944 21.9829 18.7149L23.7726 16.9705L21.2994 16.6111C21.045 16.5742 20.825 16.4143 20.7111 16.1838Z" fill="#525B58"/>
<path d="M30.847 18.5992C30.7801 18.3934 30.7801 18.1757 30.847 17.9698L31.4801 16.0213C31.8268 14.9546 31.4499 13.7949 30.5425 13.1356L28.8851 11.9313C28.7099 11.8041 28.5819 11.628 28.5151 11.422L27.8819 9.4736C27.5352 8.40688 26.5487 7.69016 25.4271 7.69016H23.3783C23.1618 7.69016 22.9548 7.6229 22.7797 7.49563L21.1222 6.29141C20.2147 5.63219 18.9954 5.63219 18.0879 6.29141L16.4305 7.49563C16.2554 7.6229 16.0483 7.69016 15.8318 7.69016H13.7831C12.6615 7.69016 11.675 8.40688 11.3283 9.47368L10.6951 11.4222C10.6283 11.6281 10.5003 11.8041 10.3251 11.9314L8.66771 13.1356C7.76037 13.7949 7.38349 14.9546 7.73013 16.0213L8.36326 17.9698C8.43021 18.1757 8.43021 18.3934 8.36326 18.5993L7.73013 20.5478C7.38349 21.6145 7.76037 22.7742 8.66779 23.4336L10.3253 24.6379C10.5004 24.7651 10.6283 24.9412 10.6952 25.1472L11.3283 27.0956C11.6751 28.1623 12.6615 28.8791 13.7832 28.8791H15.8319C16.0484 28.8791 16.2554 28.9463 16.4306 29.0736L18.0881 30.2777C18.5419 30.6074 19.0734 30.7723 19.6052 30.7723C20.1369 30.7723 20.6686 30.6074 21.1223 30.2778L22.7799 29.0736C22.955 28.9463 23.162 28.8791 23.3785 28.8791H25.4272C26.5488 28.8791 27.5354 28.1623 27.8821 27.0956L28.5152 25.147C28.5821 24.9412 28.71 24.7651 28.8852 24.6378L30.5426 23.4335C31.4501 22.7742 31.8269 21.6145 31.4803 20.5477L30.847 18.5992ZM25.9968 16.9846L23.3678 19.5472L23.9884 23.1657C24.0387 23.4588 23.9182 23.755 23.6776 23.9299C23.5415 24.0288 23.3802 24.0791 23.2183 24.0791C23.0939 24.0791 22.9691 24.0495 22.8548 23.9894L19.6051 22.2809L16.3554 23.9893C16.0923 24.1276 15.7733 24.1047 15.5327 23.9299C15.2922 23.7551 15.1716 23.4588 15.2218 23.1657L15.8425 19.5472L13.2135 16.9846C13.0005 16.777 12.924 16.4666 13.0158 16.1838C13.1078 15.9009 13.3522 15.6948 13.6465 15.652L17.2797 15.1241L18.9045 11.8318C19.0361 11.5652 19.3077 11.3963 19.6051 11.3963C19.9026 11.3963 20.1741 11.5652 20.3058 11.8318L21.9305 15.1241L25.5638 15.652C25.8581 15.6948 26.1026 15.9009 26.1944 16.1838C26.2863 16.4666 26.2097 16.777 25.9968 16.9846Z" fill="#525B58"/>
<path d="M34.3171 28.8073L30.6265 25.1158L29.8179 25.7026L29.2233 27.5315C28.6882 29.1799 27.164 30.2869 25.4312 30.2869H23.5085L22.7515 30.8362L27.5202 35.6041C27.6679 35.7518 27.8679 35.833 28.0726 35.833C28.1257 35.833 28.1796 35.8276 28.2327 35.8158C28.4905 35.7619 28.7038 35.5815 28.7999 35.3362L30.2765 31.5627L34.0491 30.0869C34.2952 29.9908 34.4757 29.7776 34.5296 29.519C34.5835 29.2612 34.5038 28.9932 34.3171 28.8073Z" fill="#525B58"/>
<path d="M15.7088 30.2869H13.7861C12.0533 30.2869 10.5291 29.1799 9.99393 27.5315L9.3994 25.7026L8.59081 25.1158L4.90018 28.8073C4.71346 28.9932 4.63378 29.2612 4.68768 29.519C4.74159 29.7776 4.92206 29.9908 5.16815 30.0869L8.94081 31.5627L10.4174 35.3362C10.5135 35.5815 10.7267 35.7619 10.9846 35.8158C11.0377 35.8276 11.0916 35.833 11.1447 35.833C11.3494 35.833 11.5494 35.7518 11.6971 35.6041L16.4658 30.8362L15.7088 30.2869Z" fill="#525B58"/>
</svg>
