<svg width="103" height="77" viewBox="0 0 103 77" fill="none" xmlns="http://www.w3.org/2000/svg">
<path d="M27 48L27.6953 47.2812L27.6953 47.2812L27 48ZM102.704 70.2104C103.096 69.8217 103.099 69.1886 102.71 68.7962L96.3763 62.4025C95.9876 62.0102 95.3544 62.0072 94.9621 62.3959C94.5697 62.7846 94.5668 63.4178 94.9555 63.8101L100.586 69.4934L94.9025 75.1237C94.5102 75.5124 94.5072 76.1456 94.8959 76.5379C95.2846 76.9303 95.9178 76.9332 96.3101 76.5445L102.704 70.2104ZM0 1C0 1.17209 0.0448093 1.35354 0.0630616 1.42886C0.0916898 1.547 0.131425 1.69092 0.179613 1.85427C0.276544 2.18285 0.417822 2.6242 0.599859 3.16216L2.49433 2.52109C2.31691 1.99676 2.18464 1.58246 2.09789 1.28838C2.05423 1.14041 2.02459 1.03125 2.00681 0.957847C1.99782 0.920778 1.99393 0.901261 1.99284 0.895246C1.98921 0.875124 2 0.923084 2 1H0ZM1.92842 6.83356C2.34084 7.91921 2.81689 9.13413 3.35254 10.4515L5.20524 9.69815C4.67541 8.39512 4.205 7.19456 3.79806 6.12332L1.92842 6.83356ZM4.85582 14.0409C5.3478 15.1827 5.87363 16.3724 6.43146 17.5976L8.25168 16.7689C7.69975 15.5566 7.17941 14.3793 6.69256 13.2495L4.85582 14.0409ZM8.07989 21.1199C8.6313 22.2662 9.20704 23.4316 9.80577 24.6073L11.588 23.6997C10.9965 22.5383 10.4274 21.3864 9.88219 20.2529L8.07989 21.1199ZM11.6153 28.0558C12.2293 29.1907 12.8632 30.3273 13.516 31.4576L15.2479 30.4574C14.6051 29.3442 13.9801 28.2239 13.3744 27.1041L11.6153 28.0558ZM15.5184 34.8037C16.2075 35.9137 16.9145 37.01 17.6383 38.0845L19.2971 36.9672C18.5882 35.9148 17.8947 34.8395 17.2176 33.7488L15.5184 34.8037ZM19.8934 41.2817C20.6811 42.3459 21.4863 43.3786 22.3077 44.3705L23.8481 43.095C23.0519 42.1335 22.2691 41.1297 21.5009 40.0919L19.8934 41.2817ZM24.9149 47.3159C25.3737 47.7982 25.837 48.2663 26.3047 48.7188L27.6953 47.2812C27.2486 46.8492 26.8048 46.4008 26.3641 45.9375L24.9149 47.3159ZM26.3047 48.7188C26.7896 49.1878 27.2888 49.6464 27.8013 50.0948L29.1183 48.5897C28.63 48.1624 28.1554 47.7264 27.6953 47.2812L26.3047 48.7188ZM30.9827 52.6314C32.0618 53.4177 33.184 54.1686 34.3431 54.8857L35.3954 53.1849C34.2762 52.4925 33.1961 51.7696 32.1605 51.015L30.9827 52.6314ZM37.8483 56.897C39.026 57.5243 40.2325 58.1223 41.4625 58.6923L42.3035 56.8777C41.1048 56.3222 39.9315 55.7406 38.7886 55.1318L37.8483 56.897ZM45.1533 60.2939C46.3888 60.7959 47.6417 61.273 48.9072 61.7264L49.5818 59.8436C48.341 59.3991 47.1143 58.9319 45.9063 58.441L45.1533 60.2939ZM52.7114 63.009C53.9859 63.4131 55.2683 63.7954 56.5538 64.1568L57.0952 62.2315C55.8296 61.8756 54.5683 61.4997 53.3159 61.1026L52.7114 63.009ZM60.4266 65.1833C61.7298 65.5084 63.0314 65.8136 64.3267 66.1001L64.7586 64.1473C63.4799 63.8645 62.1957 63.5634 60.9108 63.2428L60.4266 65.1833ZM68.2456 66.9159C69.5696 67.1748 70.8816 67.415 72.1761 67.6378L72.5153 65.6667C71.235 65.4464 69.9379 65.2089 68.6294 64.9531L68.2456 66.9159ZM76.1259 68.2741C77.4761 68.4772 78.7995 68.6617 80.0894 68.8293L80.3472 66.846C79.0699 66.68 77.7596 66.4973 76.4233 66.2964L76.1259 68.2741ZM84.0452 69.305C85.4318 69.4584 86.7653 69.5922 88.0354 69.7087L88.2182 67.7171C86.9598 67.6016 85.6387 67.4691 84.2651 67.3171L84.0452 69.305ZM92.02 70.0371C93.4872 70.1443 94.8258 70.2266 96.0127 70.2899L96.1192 68.2928C94.9445 68.2301 93.619 68.1486 92.1656 68.0424L92.02 70.0371ZM100.011 70.4587C100.648 70.4776 101.142 70.4879 101.478 70.4935C101.646 70.4963 101.774 70.4979 101.861 70.4988C101.905 70.4993 101.938 70.4996 101.96 70.4998C101.971 70.4998 101.98 70.4999 101.986 70.4999C101.989 70.5 101.991 70.5 101.993 70.5C101.993 70.5 101.994 70.5 101.994 70.5C101.995 70.5 101.995 70.5 101.995 70.5C101.995 70.5 101.995 70.5 101.995 70.5C101.995 70.5 101.995 70.5 101.995 70.5C101.995 70.5 101.995 70.5 102 69.5C102.005 68.5 102.005 68.5 102.005 68.5C102.005 68.5 102.005 68.5 102.005 68.5C102.005 68.5 102.005 68.5 102.005 68.5C102.005 68.5 102.005 68.5 102.005 68.5C102.004 68.5 102.004 68.5 102.003 68.5C102.002 68.5 102 68.5 101.998 68.5C101.993 68.4999 101.985 68.4999 101.975 68.4998C101.955 68.4997 101.924 68.4994 101.882 68.499C101.799 68.4981 101.675 68.4965 101.511 68.4938C101.183 68.4884 100.698 68.4782 100.071 68.4595L100.011 70.4587Z" fill="#33353F"/>
</svg>
