<svg width="103" height="77" viewBox="0 0 103 77" fill="none" xmlns="http://www.w3.org/2000/svg">
<path d="M76 48L75.3047 47.2812L75.3047 47.2812L76 48ZM0.29621 70.2104C-0.0961377 69.8217 -0.0991004 69.1886 0.289592 68.7962L6.62371 62.4025C7.0124 62.0102 7.64556 62.0072 8.0379 62.3959C8.43025 62.7846 8.43321 63.4178 8.04452 63.8101L2.4142 69.4934L8.09746 75.1237C8.48981 75.5124 8.49277 76.1456 8.10408 76.5379C7.71538 76.9303 7.08223 76.9332 6.68988 76.5445L0.29621 70.2104ZM103 1C103 1.17209 102.955 1.35354 102.937 1.42886C102.908 1.547 102.869 1.69092 102.82 1.85427C102.723 2.18285 102.582 2.6242 102.4 3.16216L100.506 2.52109C100.683 1.99676 100.815 1.58246 100.902 1.28838C100.946 1.14041 100.975 1.03125 100.993 0.957847C101.002 0.920778 101.006 0.901261 101.007 0.895246C101.011 0.875124 101 0.923084 101 1H103ZM101.072 6.83356C100.659 7.91921 100.183 9.13413 99.6475 10.4515L97.7948 9.69815C98.3246 8.39512 98.795 7.19456 99.2019 6.12332L101.072 6.83356ZM98.1442 14.0409C97.6522 15.1827 97.1264 16.3724 96.5685 17.5976L94.7483 16.7689C95.3003 15.5566 95.8206 14.3793 96.3074 13.2495L98.1442 14.0409ZM94.9201 21.1199C94.3687 22.2662 93.793 23.4316 93.1942 24.6073L91.412 23.6997C92.0035 22.5383 92.5726 21.3864 93.1178 20.2529L94.9201 21.1199ZM91.3847 28.0558C90.7707 29.1907 90.1368 30.3273 89.484 31.4576L87.7521 30.4574C88.3949 29.3442 89.0199 28.2239 89.6256 27.1041L91.3847 28.0558ZM87.4816 34.8037C86.7925 35.9137 86.0855 37.01 85.3617 38.0845L83.7029 36.9672C84.4118 35.9148 85.1053 34.8395 85.7824 33.7488L87.4816 34.8037ZM83.1066 41.2817C82.3189 42.3459 81.5137 43.3786 80.6923 44.3705L79.1519 43.095C79.9481 42.1335 80.7309 41.1297 81.4991 40.0919L83.1066 41.2817ZM78.0851 47.3159C77.6263 47.7982 77.163 48.2663 76.6953 48.7188L75.3047 47.2812C75.7514 46.8492 76.1952 46.4008 76.6359 45.9375L78.0851 47.3159ZM76.6953 48.7188C76.2104 49.1878 75.7112 49.6464 75.1987 50.0948L73.8817 48.5897C74.37 48.1624 74.8446 47.7264 75.3047 47.2812L76.6953 48.7188ZM72.0173 52.6314C70.9382 53.4177 69.816 54.1686 68.6569 54.8857L67.6046 53.1849C68.7238 52.4925 69.8039 51.7696 70.8395 51.015L72.0173 52.6314ZM65.1517 56.897C63.974 57.5243 62.7675 58.1223 61.5375 58.6923L60.6965 56.8777C61.8952 56.3222 63.0685 55.7406 64.2114 55.1318L65.1517 56.897ZM57.8467 60.2939C56.6112 60.7959 55.3583 61.273 54.0928 61.7264L53.4182 59.8436C54.659 59.3991 55.8857 58.9319 57.0937 58.441L57.8467 60.2939ZM50.2886 63.009C49.0141 63.4131 47.7317 63.7954 46.4462 64.1568L45.9048 62.2315C47.1704 61.8756 48.4317 61.4997 49.6841 61.1026L50.2886 63.009ZM42.5734 65.1833C41.2702 65.5084 39.9686 65.8136 38.6733 66.1001L38.2414 64.1473C39.5201 63.8645 40.8043 63.5634 42.0892 63.2428L42.5734 65.1833ZM34.7544 66.9159C33.4304 67.1748 32.1184 67.415 30.8239 67.6378L30.4847 65.6667C31.765 65.4464 33.0621 65.2089 34.3706 64.9531L34.7544 66.9159ZM26.8741 68.2741C25.5239 68.4772 24.2005 68.6617 22.9106 68.8293L22.6528 66.846C23.9301 66.68 25.2404 66.4973 26.5767 66.2964L26.8741 68.2741ZM18.9548 69.305C17.5682 69.4584 16.2347 69.5922 14.9646 69.7087L14.7818 67.7171C16.0402 67.6016 17.3613 67.4691 18.7349 67.3171L18.9548 69.305ZM10.98 70.0371C9.51283 70.1443 8.17422 70.2266 6.98732 70.2899L6.88077 68.2928C8.05546 68.2301 9.38101 68.1486 10.8344 68.0424L10.98 70.0371ZM2.98883 70.4587C2.35226 70.4776 1.85811 70.4879 1.52217 70.4935C1.3542 70.4963 1.22578 70.4979 1.13887 70.4988C1.09542 70.4993 1.06235 70.4996 1.0399 70.4998C1.02868 70.4998 1.02011 70.4999 1.01423 70.4999C1.01129 70.5 1.00902 70.5 1.00743 70.5C1.00663 70.5 1.006 70.5 1.00554 70.5C1.00532 70.5 1.00513 70.5 1.00498 70.5C1.00491 70.5 1.00485 70.5 1.0048 70.5C1.00477 70.5 1.00474 70.5 1.00473 70.5C1.0047 70.5 1.00468 70.5 1 69.5C0.995321 68.5 0.995301 68.5 0.995284 68.5C0.995282 68.5 0.995268 68.5 0.995264 68.5C0.995255 68.5 0.995257 68.5 0.99527 68.5C0.995295 68.5 0.995362 68.5 0.995472 68.5C0.995692 68.5 0.996081 68.5 0.996638 68.5C0.997753 68.5 0.999541 68.5 1.002 68.5C1.00692 68.4999 1.01452 68.4999 1.02477 68.4998C1.04527 68.4997 1.07638 68.4994 1.11784 68.499C1.20076 68.4981 1.32511 68.4965 1.4889 68.4938C1.81651 68.4884 2.30189 68.4782 2.92929 68.4595L2.98883 70.4587Z" fill="#33353F"/>
</svg>
