<svg width="603" height="653" viewBox="0 0 603 653" fill="none" xmlns="http://www.w3.org/2000/svg">
<path d="M469.766 338.298L368.498 380.16L263.245 231.484L334.687 142.605L469.766 338.298Z" stroke="#74EB9A" stroke-width="1.51986" stroke-miterlimit="10" stroke-linecap="round" stroke-linejoin="round"/>
<path d="M369.171 468.19L336.724 421.18L368.495 380.154L469.764 338.292L369.171 468.19Z" stroke="#74EB9A" stroke-width="1.51986" stroke-miterlimit="10" stroke-linecap="round" stroke-linejoin="round"/>
<path d="M323.06 32.5815L549.422 360.519L380.824 578.237L154.461 250.296L323.06 32.5815ZM369.184 468.204L469.776 338.306L334.7 142.614L234.108 272.512L369.184 468.204Z" stroke="#74EB9A" stroke-width="1.51986" stroke-miterlimit="10" stroke-linecap="round" stroke-linejoin="round"/>
<path d="M380.809 578.218L279.54 620.08L53.1777 292.139L154.446 250.278L380.809 578.218Z" stroke="#74EB9A" stroke-width="1.51986" stroke-miterlimit="10" stroke-linecap="round" stroke-linejoin="round"/>
<path d="M154.452 250.29L53.1829 292.152L221.782 74.4371L323.051 32.5754L154.452 250.29Z" stroke="#74EB9A" stroke-width="1.51986" stroke-miterlimit="10" stroke-linecap="round" stroke-linejoin="round"/>
<g opacity="0.1">
<rect x="42.9994" y="36.8047" width="526" height="544" rx="24" fill="#E6F8CB"/>
<rect x="43.9994" y="37.8047" width="524" height="542" rx="23" stroke="white" stroke-opacity="0.2" stroke-width="2"/>
</g>
<rect x="43.9994" y="37.8047" width="524" height="542" rx="23" stroke="white" stroke-opacity="0.2" stroke-width="2"/>
</svg>
