<svg width="154" height="154" viewBox="0 0 154 154" fill="none" xmlns="http://www.w3.org/2000/svg">
<circle cx="76.9985" cy="77" r="77" fill="#E1FC6C"/>
<path fill-rule="evenodd" clip-rule="evenodd" d="M47.4894 82.7991C46.7714 82.7991 46.2094 83.3013 46.2094 84.0342C46.2094 84.7676 46.7743 85.2669 47.4894 85.2669C48.2039 85.2669 48.7694 84.7642 48.7694 84.0342C48.7694 83.3013 48.2068 82.7991 47.4894 82.7991ZM47.4894 84.9137C46.9775 84.9137 46.5978 84.5398 46.5978 84.0342C46.5978 83.529 46.9746 83.1522 47.4894 83.1522C47.9979 83.1522 48.3805 83.5348 48.3805 84.0342C48.3805 84.5307 47.9945 84.9137 47.4894 84.9137ZM59.9445 78.479H53.7133L54.4216 67.6484L50.3751 78.479H44.5887L53.7698 53.9987H59.9266L59.2159 64.9779L63.3392 53.9987H69.126L59.9445 78.479ZM60.6962 78.479L69.8767 53.9987H75.663L66.4825 78.479H60.6962Z" fill="black"/>
<path fill-rule="evenodd" clip-rule="evenodd" d="M43.9224 70.0419C35.8366 79.5375 28.2091 92.172 34.9464 97.9902C41.4748 103.628 49.6349 100.29 55.1988 98.0645C60.7627 95.8389 122.26 69.1329 122.26 69.1329C122.854 68.8362 122.743 68.4651 122.001 68.6504C121.702 68.7252 55.0507 86.7881 55.0507 86.7881C46.5929 89.1624 36.9492 83.9878 43.9224 70.0419Z" fill="black"/>
<path fill-rule="evenodd" clip-rule="evenodd" d="M47.7066 84.1214C47.8861 84.1127 48.0265 84.02 48.0265 83.7716C48.0265 83.4512 47.8171 83.3706 47.4673 83.3706H46.9646V84.6989H47.2999V84.1334H47.3564L47.6618 84.6989H48.0473L47.7066 84.1214ZM47.4915 83.9062H47.3004V83.5979H47.4615C47.5605 83.5979 47.6738 83.6095 47.6738 83.7383C47.6738 83.8763 47.6082 83.9062 47.4915 83.9062ZM105.655 53.9242C104.937 53.9242 104.375 54.4269 104.375 55.1593C104.375 55.8922 104.94 56.3916 105.655 56.3916C106.369 56.3916 106.935 55.8888 106.935 55.1593C106.935 54.4269 106.373 53.9242 105.655 53.9242ZM105.655 56.0394C105.143 56.0394 104.763 55.6654 104.763 55.1598C104.763 54.6547 105.14 54.2778 105.655 54.2778C106.163 54.2778 106.546 54.6605 106.546 55.1598C106.546 55.6563 106.16 56.0394 105.655 56.0394Z" fill="black"/>
<path fill-rule="evenodd" clip-rule="evenodd" d="M105.875 55.2459C106.054 55.2372 106.195 55.1445 106.195 54.8961C106.195 54.5757 105.985 54.4951 105.636 54.4951H105.133V55.8229H105.468V55.2579H105.525L105.83 55.8229H106.216L105.875 55.2459ZM105.659 55.0307H105.468V54.7224H105.63C105.728 54.7224 105.842 54.7344 105.842 54.8633C105.842 55.0008 105.776 55.0307 105.659 55.0307ZM101.844 58.079L103.399 53.9987H85.7431L79.6808 61.3429L82.4796 53.9987H76.619L67.5118 78.479H73.2981L77.1864 68.2418L77.4527 78.479L95.2073 78.4404L96.8974 73.7314H90.1471L92.365 67.797H97.9285L99.6403 63.2347H94.0769L95.9841 58.079H101.844ZM83.1932 76.8468L82.8222 64.0877L91.5709 54.4821L83.1932 76.8468Z" fill="black"/>
</svg>
