<svg width="154" height="154" viewBox="0 0 154 154" fill="none" xmlns="http://www.w3.org/2000/svg">
<circle cx="76.9985" cy="77" r="77" fill="#73F2C4"/>
<g clip-path="url(#clip0_37_3)">
<path d="M88.0615 84.6932C82.7216 88.6291 74.9818 90.7291 68.3179 90.7291C58.9741 90.7291 50.5623 87.2731 44.1984 81.5253C43.6985 81.0733 44.1464 80.4573 44.7464 80.8093C51.6143 84.8052 60.1061 87.2091 68.8779 87.2091C74.7938 87.2091 81.3017 85.9852 87.2855 83.4452C88.1895 83.0612 88.9455 84.0372 88.0615 84.6932Z" fill="#FF9900"/>
<path d="M90.2796 82.1528C89.5996 81.2808 85.7677 81.7408 84.0477 81.9448C83.5237 82.0088 83.4437 81.5528 83.9157 81.2248C86.9676 79.0768 91.9755 79.6968 92.5595 80.4168C93.1435 81.1408 92.4075 86.1607 89.5396 88.5566C89.0996 88.9246 88.6796 88.7286 88.8756 88.2406C89.5196 86.6327 90.9636 83.0287 90.2796 82.1528Z" fill="#FF9900"/>
<path d="M84.1672 66.0613V63.9733C84.1672 63.6573 84.4072 63.4453 84.6952 63.4453H94.043C94.343 63.4453 94.583 63.6613 94.583 63.9733V65.7613C94.579 66.0613 94.327 66.4532 93.879 67.0732L89.0351 73.9891C90.8351 73.9451 92.7351 74.2131 94.367 75.1331C94.735 75.3411 94.835 75.6451 94.863 75.9451V78.173C94.863 78.477 94.527 78.833 94.175 78.649C91.2991 77.141 87.4792 76.977 84.2992 78.665C83.9752 78.841 83.6353 78.489 83.6353 78.185V76.0691C83.6353 75.7291 83.6393 75.1491 83.9792 74.6331L89.5911 66.5852H84.7072C84.4072 66.5852 84.1672 66.3733 84.1672 66.0613Z" fill="#221F1F"/>
<path d="M50.0692 79.0894H47.2253C46.9533 79.0694 46.7373 78.8654 46.7173 78.6054V64.0097C46.7173 63.7177 46.9613 63.4857 47.2653 63.4857H49.9172C50.1932 63.4977 50.4132 63.7097 50.4332 63.9737V65.8817H50.4852C51.1772 64.0377 52.4772 63.1777 54.2291 63.1777C56.0091 63.1777 57.1211 64.0377 57.9211 65.8817C58.609 64.0377 60.173 63.1777 61.849 63.1777C63.0409 63.1777 64.3449 63.6697 65.1409 64.7737C66.0409 66.0017 65.8569 67.7856 65.8569 69.3496L65.8529 78.5614C65.8529 78.8534 65.6089 79.0894 65.3049 79.0894H62.465C62.181 79.0694 61.953 78.8414 61.953 78.5614V70.8256C61.953 70.2096 62.009 68.6736 61.873 68.0896C61.661 67.1097 61.025 66.8337 60.201 66.8337C59.513 66.8337 58.793 67.2936 58.501 68.0296C58.209 68.7656 58.237 69.9976 58.237 70.8256V78.5614C58.237 78.8534 57.9931 79.0894 57.6891 79.0894H54.8491C54.5611 79.0694 54.3371 78.8414 54.3371 78.5614L54.3331 70.8256C54.3331 69.1976 54.6011 66.8017 52.5812 66.8017C50.5372 66.8017 50.6172 69.1376 50.6172 70.8256V78.5614C50.6172 78.8534 50.3732 79.0894 50.0692 79.0894Z" fill="#221F1F"/>
<path d="M102.633 63.1777C106.853 63.1777 109.137 66.8017 109.137 71.4096C109.137 75.8615 106.613 79.3934 102.633 79.3934C98.4889 79.3934 96.2329 75.7695 96.2329 71.2536C96.2329 66.7097 98.5169 63.1777 102.633 63.1777ZM102.657 66.1577C100.561 66.1577 100.429 69.0136 100.429 70.7936C100.429 72.5775 100.401 76.3855 102.633 76.3855C104.837 76.3855 104.941 73.3135 104.941 71.4416C104.941 70.2096 104.889 68.7376 104.517 67.5696C104.197 66.5537 103.561 66.1577 102.657 66.1577Z" fill="#221F1F"/>
<path d="M114.608 79.0894H111.776C111.492 79.0694 111.264 78.8414 111.264 78.5614L111.26 63.9617C111.284 63.6937 111.52 63.4857 111.808 63.4857H114.444C114.692 63.4977 114.896 63.6657 114.952 63.8937V66.1257H115.004C115.8 64.1297 116.916 63.1777 118.88 63.1777C120.156 63.1777 121.4 63.6377 122.2 64.8977C122.944 66.0657 122.944 68.0296 122.944 69.4416V78.6294C122.912 78.8854 122.676 79.0894 122.396 79.0894H119.544C119.284 79.0694 119.068 78.8774 119.04 78.6294V70.7016C119.04 69.1056 119.224 66.7697 117.26 66.7697C116.568 66.7697 115.932 67.2337 115.616 67.9376C115.216 68.8296 115.164 69.7176 115.164 70.7016V78.5614C115.16 78.8534 114.912 79.0894 114.608 79.0894Z" fill="#221F1F"/>
<path d="M76.7182 72.1169V71.5009C74.6622 71.5009 72.4903 71.9409 72.4903 74.3649C72.4903 75.5928 73.1263 76.4248 74.2183 76.4248C75.0182 76.4248 75.7342 75.9328 76.1862 75.1329C76.7462 74.1489 76.7182 73.2249 76.7182 72.1169ZM79.5861 79.0488C79.3981 79.2168 79.1262 79.2288 78.9142 79.1168C77.9702 78.3328 77.8022 77.9688 77.2822 77.2208C75.7222 78.8128 74.6182 79.2888 72.5943 79.2888C70.2023 79.2888 68.3384 77.8128 68.3384 74.8569C68.3384 72.5489 69.5904 70.9769 71.3703 70.209C72.9143 69.529 75.0702 69.409 76.7182 69.221V68.853C76.7182 68.177 76.7702 67.377 76.3742 66.793C76.0262 66.269 75.3622 66.053 74.7782 66.053C73.6943 66.053 72.7263 66.609 72.4903 67.761C72.4423 68.017 72.2543 68.269 71.9983 68.281L69.2384 67.985C69.0064 67.933 68.7504 67.745 68.8144 67.389C69.4504 64.0451 72.4703 63.0371 75.1742 63.0371C76.5582 63.0371 78.3662 63.4051 79.4581 64.4531C80.8421 65.7451 80.7101 67.469 80.7101 69.345V73.7769C80.7101 75.1089 81.2621 75.6928 81.7821 76.4128C81.9661 76.6688 82.0061 76.9768 81.7741 77.1688C81.1941 77.6528 80.1621 78.5528 79.5941 79.0568L79.5861 79.0488Z" fill="#221F1F"/>
<path d="M39.433 72.1169V71.5009C37.3771 71.5009 35.2051 71.9409 35.2051 74.3649C35.2051 75.5928 35.8411 76.4248 36.9331 76.4248C37.7331 76.4248 38.4491 75.9328 38.9011 75.1329C39.461 74.1489 39.433 73.2249 39.433 72.1169ZM42.301 79.0488C42.113 79.2168 41.841 79.2288 41.629 79.1168C40.685 78.3328 40.517 77.9688 39.997 77.2208C38.4371 78.8128 37.3331 79.2888 35.3091 79.2888C32.9172 79.2888 31.0532 77.8128 31.0532 74.8569C31.0532 72.5489 32.3052 70.9769 34.0852 70.209C35.6291 69.529 37.7851 69.409 39.433 69.221V68.853C39.433 68.177 39.485 67.377 39.0891 66.793C38.7411 66.269 38.0771 66.053 37.4931 66.053C36.4091 66.053 35.4411 66.609 35.2051 67.761C35.1571 68.017 34.9691 68.269 34.7131 68.281L31.9532 67.985C31.7212 67.933 31.4652 67.745 31.5292 67.389C32.1652 64.0451 35.1851 63.0371 37.8891 63.0371C39.273 63.0371 41.081 63.4051 42.173 64.4531C43.557 65.7451 43.425 67.469 43.425 69.345V73.7769C43.425 75.1089 43.977 75.6928 44.4969 76.4128C44.6809 76.6688 44.7209 76.9768 44.4889 77.1688C43.909 77.6528 42.877 78.5528 42.309 79.0568L42.301 79.0488Z" fill="#221F1F"/>
</g>
<defs>
<clipPath id="clip0_37_3">
<rect width="92" height="27.7678" fill="white" transform="translate(30.9985 63)"/>
</clipPath>
</defs>
</svg>
