<svg width="431" height="383" viewBox="0 0 431 383" fill="none" xmlns="http://www.w3.org/2000/svg">
<g opacity="0.2">
<path d="M1.99854 2L42.5902 42.5883" stroke="#D9D9D9" stroke-width="3.42865" stroke-miterlimit="10"/>
<path d="M42.5902 2L1.99854 42.5883" stroke="#D9D9D9" stroke-width="3.42865" stroke-miterlimit="10"/>
<path d="M130.817 2L171.408 42.5883" stroke="#D9D9D9" stroke-width="3.42865" stroke-miterlimit="10"/>
<path d="M171.408 2L130.817 42.5883" stroke="#D9D9D9" stroke-width="3.42865" stroke-miterlimit="10"/>
<path d="M259.605 2L300.196 42.5883" stroke="#D9D9D9" stroke-width="3.42865" stroke-miterlimit="10"/>
<path d="M300.196 2L259.605 42.5883" stroke="#D9D9D9" stroke-width="3.42865" stroke-miterlimit="10"/>
<path d="M388.415 2L429.003 42.5883" stroke="#D9D9D9" stroke-width="3.42865" stroke-miterlimit="10"/>
<path d="M429.003 2L388.415 42.5883" stroke="#D9D9D9" stroke-width="3.42865" stroke-miterlimit="10"/>
<path d="M1.99854 114.823L42.5902 155.412" stroke="#D9D9D9" stroke-width="3.42865" stroke-miterlimit="10"/>
<path d="M42.5902 114.823L1.99854 155.412" stroke="#D9D9D9" stroke-width="3.42865" stroke-miterlimit="10"/>
<path d="M130.817 114.823L171.408 155.412" stroke="#D9D9D9" stroke-width="3.42865" stroke-miterlimit="10"/>
<path d="M171.408 114.823L130.817 155.412" stroke="#D9D9D9" stroke-width="3.42865" stroke-miterlimit="10"/>
<path d="M259.605 114.823L300.196 155.412" stroke="#D9D9D9" stroke-width="3.42865" stroke-miterlimit="10"/>
<path d="M300.196 114.823L259.605 155.412" stroke="#D9D9D9" stroke-width="3.42865" stroke-miterlimit="10"/>
<path d="M388.415 114.823L429.003 155.412" stroke="#D9D9D9" stroke-width="3.42865" stroke-miterlimit="10"/>
<path d="M429.003 114.823L388.415 155.412" stroke="#D9D9D9" stroke-width="3.42865" stroke-miterlimit="10"/>
<path d="M1.99854 227.662L42.5902 268.25" stroke="#D9D9D9" stroke-width="3.42865" stroke-miterlimit="10"/>
<path d="M42.5902 227.662L1.99854 268.25" stroke="#D9D9D9" stroke-width="3.42865" stroke-miterlimit="10"/>
<path d="M130.817 227.662L171.408 268.25" stroke="#D9D9D9" stroke-width="3.42865" stroke-miterlimit="10"/>
<path d="M171.408 227.662L130.817 268.25" stroke="#D9D9D9" stroke-width="3.42865" stroke-miterlimit="10"/>
<path d="M259.605 227.662L300.196 268.25" stroke="#D9D9D9" stroke-width="3.42865" stroke-miterlimit="10"/>
<path d="M300.196 227.662L259.605 268.25" stroke="#D9D9D9" stroke-width="3.42865" stroke-miterlimit="10"/>
<path d="M388.415 227.662L429.003 268.25" stroke="#D9D9D9" stroke-width="3.42865" stroke-miterlimit="10"/>
<path d="M429.003 227.662L388.415 268.25" stroke="#D9D9D9" stroke-width="3.42865" stroke-miterlimit="10"/>
<path d="M1.99854 340.497L42.5902 381.085" stroke="#D9D9D9" stroke-width="3.42865" stroke-miterlimit="10"/>
<path d="M42.5902 340.497L1.99854 381.085" stroke="#D9D9D9" stroke-width="3.42865" stroke-miterlimit="10"/>
<path d="M130.817 340.497L171.408 381.085" stroke="#D9D9D9" stroke-width="3.42865" stroke-miterlimit="10"/>
<path d="M171.408 340.497L130.817 381.085" stroke="#D9D9D9" stroke-width="3.42865" stroke-miterlimit="10"/>
<path d="M259.605 340.497L300.196 381.085" stroke="#D9D9D9" stroke-width="3.42865" stroke-miterlimit="10"/>
<path d="M300.196 340.497L259.605 381.085" stroke="#D9D9D9" stroke-width="3.42865" stroke-miterlimit="10"/>
<path d="M388.415 340.497L429.003 381.085" stroke="#D9D9D9" stroke-width="3.42865" stroke-miterlimit="10"/>
<path d="M429.003 340.497L388.415 381.085" stroke="#D9D9D9" stroke-width="3.42865" stroke-miterlimit="10"/>
</g>
</svg>
