<svg width="651" height="526" viewBox="0 0 651 526" fill="none" xmlns="http://www.w3.org/2000/svg">
<path d="M225.36 79.2305L230.346 214.776L451.88 256.758L515.173 130.597L225.36 79.2305Z" stroke="#73F2C4" stroke-width="1.88127" stroke-miterlimit="10" stroke-linecap="round" stroke-linejoin="round"/>
<path d="M130.875 259.317L200.493 271.654L230.33 214.776L225.345 79.2305L130.875 259.317Z" stroke="#73F2C4" stroke-width="1.88127" stroke-miterlimit="10" stroke-linecap="round" stroke-linejoin="round"/>
<path d="M644.999 87.0755L159.339 1L1.00047 302.834L486.664 388.91L644.999 87.0755ZM130.861 259.317L225.33 79.2306L515.139 130.593L420.67 310.679L130.861 259.317Z" stroke="#73F2C4" stroke-width="1.88127" stroke-miterlimit="10" stroke-linecap="round" stroke-linejoin="round"/>
<path d="M1.0315 302.843L6.01685 438.388L491.681 524.464L486.696 388.918L1.0315 302.843Z" stroke="#73F2C4" stroke-width="1.88127" stroke-miterlimit="10" stroke-linecap="round" stroke-linejoin="round"/>
<path d="M486.68 388.919L491.665 524.464L650 222.63L645.015 87.0845L486.68 388.919Z" stroke="#73F2C4" stroke-width="1.88127" stroke-miterlimit="10" stroke-linecap="round" stroke-linejoin="round"/>
</svg>
