<svg width="32" height="32" viewBox="0 0 32 32" fill="none" xmlns="http://www.w3.org/2000/svg">
<g clip-path="url(#clip0_21_33)">
<path d="M21.4994 17.8681C21.4979 17.8697 21.4963 17.8713 21.4947 17.8729L16.6003 22.7737C16.5614 22.8124 16.5184 22.8467 16.4721 22.8762L16.3312 22.9531L16.2351 22.9851H16.1646C16.0566 23.005 15.9459 23.005 15.8379 22.9851H15.7738H15.697L15.5881 22.9275C15.5274 22.8945 15.4713 22.8536 15.4215 22.8057L10.5078 17.8729C10.1788 17.5464 10.1767 17.0151 10.5031 16.686C10.5047 16.6844 10.5062 16.6829 10.5078 16.6813C10.8395 16.3648 11.3613 16.3648 11.693 16.6813L14.6207 19.6026C14.747 19.7264 14.9498 19.7244 15.0737 19.5981C15.1313 19.5393 15.1641 19.4606 15.1652 19.3783V9.83931C15.1652 9.3758 15.5409 9.00004 16.0044 9.00001C16.4679 8.99998 16.8437 9.37568 16.8437 9.83919V9.83931V19.3783C16.8462 19.5552 16.9916 19.6966 17.1685 19.6941C17.2508 19.693 17.3295 19.6602 17.3882 19.6026L20.3031 16.6813C20.6357 16.3607 21.1622 16.3607 21.4947 16.6813C21.8237 17.0077 21.8259 17.5391 21.4994 17.8681Z" fill="#CC3838"/>
</g>
<rect width="32" height="32" rx="16" transform="matrix(1 0 0 -1 0 32)" fill="#F27373" fill-opacity="0.2"/>
<defs>
<clipPath id="clip0_21_33">
<rect width="14" height="14" fill="white" transform="translate(9 9)"/>
</clipPath>
</defs>
</svg>
