<svg width="20" height="21" viewBox="0 0 20 21" fill="none" xmlns="http://www.w3.org/2000/svg">
<g clip-path="url(#clip0_0_778)">
<path d="M14.0404 0.500977H5.95664C2.67133 0.500977 -0.00146484 3.17377 -0.00146484 6.45908V14.5429C-0.00146484 17.8282 2.67133 20.501 5.95664 20.501H14.0404C17.3257 20.501 19.9985 17.8282 19.9985 14.5429V6.45908C19.9985 3.17377 17.3257 0.500977 14.0404 0.500977ZM17.9865 14.5429C17.9865 16.7222 16.2198 18.489 14.0404 18.489H5.95664C3.77728 18.489 2.01053 16.7222 2.01053 14.5429V6.45908C2.01053 4.27969 3.77728 2.51298 5.95664 2.51298H14.0404C16.2198 2.51298 17.9865 4.27969 17.9865 6.45908V14.5429Z" fill="black"/>
<path d="M9.99937 5.32812C7.14713 5.32812 4.82666 7.6486 4.82666 10.5008C4.82666 13.353 7.14713 15.6735 9.99937 15.6735C12.8516 15.6735 15.1721 13.353 15.1721 10.5008C15.1721 7.64856 12.8516 5.32812 9.99937 5.32812ZM9.99937 13.6615C8.25374 13.6615 6.83866 12.2465 6.83866 10.5008C6.83866 8.75521 8.25378 7.34012 9.99937 7.34012C11.745 7.34012 13.1601 8.75521 13.1601 10.5008C13.1601 12.2464 11.745 13.6615 9.99937 13.6615Z" fill="black"/>
<path d="M15.1833 6.6069C15.8679 6.6069 16.4228 6.05197 16.4228 5.36742C16.4228 4.68287 15.8679 4.12793 15.1833 4.12793C14.4988 4.12793 13.9438 4.68287 13.9438 5.36742C13.9438 6.05197 14.4988 6.6069 15.1833 6.6069Z" fill="black"/>
</g>
<defs>
<clipPath id="clip0_0_778">
<rect width="20" height="20" fill="white" transform="translate(-0.00146484 0.5)"/>
</clipPath>
</defs>
</svg>
