<svg width="20" height="21" viewBox="0 0 20 21" fill="none" xmlns="http://www.w3.org/2000/svg">
<g clip-path="url(#clip0_0_789)">
<path d="M19.9985 10.5C19.9985 4.97656 15.522 0.5 9.99854 0.5C4.4751 0.5 -0.00146484 4.97656 -0.00146484 10.5C-0.00146484 16.0234 4.4751 20.5 9.99854 20.5C10.0571 20.5 10.1157 20.5 10.1743 20.4961V12.7148H8.02588V10.2109H10.1743V8.36719C10.1743 6.23047 11.479 5.06641 13.3853 5.06641C14.2993 5.06641 15.0845 5.13281 15.311 5.16406V7.39844H13.9985C12.9634 7.39844 12.7603 7.89062 12.7603 8.61328V10.207H15.2407L14.9165 12.7109H12.7603V20.1133C16.9399 18.9141 19.9985 15.0664 19.9985 10.5Z" fill="black"/>
</g>
<defs>
<clipPath id="clip0_0_789">
<rect width="20" height="20" fill="white" transform="translate(-0.00146484 0.5)"/>
</clipPath>
</defs>
</svg>
