<svg width="155" height="30" viewBox="0 0 155 30" fill="none" xmlns="http://www.w3.org/2000/svg">
<g opacity="0.2" clip-path="url(#clip0_0_964)">
<path d="M12.1175 4.69955C10.2926 4.69955 9.76503 5.50895 9.76503 7.29419V10.2557H14.6326L14.1447 15.0403H9.76692V29.5604H3.92549V15.0403H-0.00976562V10.2557H3.92549V7.3755C3.92549 2.54932 5.87137 7.49347e-05 11.3006 7.49347e-05C12.4382 -0.00257266 13.5751 0.0649394 14.7044 0.202425V4.70522L12.1175 4.69955Z" fill="white"/>
<path d="M15.0311 19.3024C15.0311 13.9088 17.5859 9.84668 22.9394 9.84668C25.8592 9.84668 27.6424 11.3482 28.4953 13.2129V10.2589H34.0909V29.5637H28.4953V26.6438C27.684 28.5103 25.8592 29.9703 22.9394 29.9703C17.5859 29.9703 15.0311 25.9138 15.0311 20.5146V19.3024ZM20.8706 20.6016C20.8706 23.4799 21.9239 25.3861 24.6413 25.3861C27.0354 25.3861 28.2513 23.6425 28.2513 20.8852V18.9468C28.2513 16.1895 27.0354 14.4459 24.6413 14.4459C21.9239 14.4459 20.8706 16.3522 20.8706 19.2305V20.6016Z" fill="white"/>
<path d="M46.2657 9.84668C48.535 9.84668 50.6851 10.3346 51.8613 11.144L50.5641 15.2818C49.3474 14.7024 48.018 14.3975 46.6704 14.3892C43.5067 14.3892 42.1319 16.2141 42.1319 19.3383V20.473C42.1319 23.5971 43.5105 25.4221 46.6704 25.4221C48.018 25.4136 49.3474 25.1089 50.5641 24.5295L51.8613 28.6654C50.6851 29.4767 48.5369 29.9646 46.2657 29.9646C39.4107 29.9646 36.2886 26.2731 36.2886 20.3519V19.4593C36.2886 13.5382 39.4107 9.84668 46.2657 9.84668Z" fill="white"/>
<path d="M52.6243 20.6437V18.9417C52.6243 13.4669 55.7464 9.86426 62.1155 9.86426C68.1176 9.86426 70.7537 13.5141 70.7537 18.868V21.9505H58.462C58.5849 24.5868 59.7611 25.763 63.0005 25.763C65.1922 25.763 67.503 25.3167 69.2069 24.5868L70.2753 28.5865C68.7341 29.3997 65.5704 30.0068 62.7736 30.0068C55.3815 30.0049 52.6243 26.3171 52.6243 20.6437ZM58.4639 18.1285H65.5212V17.6425C65.5212 15.5339 64.6703 13.8602 62.1174 13.8602C59.4794 13.8621 58.4639 15.5263 58.4639 18.121V18.1285Z" fill="white"/>
<path d="M92.3995 20.5141C92.3995 25.9076 89.805 29.9698 84.4571 29.9698C81.5374 29.9698 79.5102 28.5098 78.6989 26.6433V29.5632H73.1846V0.558816L79.0242 0.0292969V12.9268C79.8751 11.2248 81.7416 9.84429 84.459 9.84429C89.8126 9.84429 92.4014 13.9008 92.4014 19.3L92.3995 20.5141ZM86.56 19.1752C86.56 16.4576 85.5067 14.4303 82.7079 14.4303C80.3139 14.4303 79.0166 16.1323 79.0166 18.8915V20.9188C79.0166 23.6761 80.3139 25.38 82.7079 25.38C85.5067 25.38 86.56 23.3527 86.56 20.6351V19.1752Z" fill="white"/>
<path d="M94.366 20.3917V19.4196C94.366 13.8616 97.5297 9.84668 103.978 9.84668C110.427 9.84668 113.592 13.8616 113.592 19.4196V20.3917C113.592 25.9478 110.429 29.9646 103.98 29.9646C97.5316 29.9646 94.366 25.9478 94.366 20.3917ZM107.751 19.013C107.751 16.4581 106.696 14.4308 103.969 14.4308C101.242 14.4308 100.196 16.4581 100.196 19.013V20.7982C100.196 23.3532 101.251 25.3805 103.969 25.3805C106.686 25.3805 107.751 23.3532 107.751 20.7982V19.013Z" fill="white"/>
<path d="M115.524 20.3917V19.4196C115.524 13.8616 118.688 9.84668 125.136 9.84668C131.585 9.84668 134.748 13.8616 134.748 19.4196V20.3917C134.748 25.9478 131.585 29.9646 125.136 29.9646C118.688 29.9646 115.524 25.9478 115.524 20.3917ZM128.909 19.013C128.909 16.4581 127.854 14.4308 125.136 14.4308C122.419 14.4308 121.365 16.4581 121.365 19.013V20.7982C121.365 23.3532 122.419 25.3805 125.136 25.3805C127.854 25.3805 128.909 23.3532 128.909 20.7982V19.013Z" fill="white"/>
<path d="M142.781 19.4588L148.539 10.2528H154.744L148.702 19.7841L154.988 29.5575H148.783L142.781 20.1018V29.5575H136.94V0.558816L142.781 0.0292969V19.4588Z" fill="white"/>
</g>
<defs>
<clipPath id="clip0_0_964">
<rect width="154.998" height="30" fill="white"/>
</clipPath>
</defs>
</svg>
