<svg width="33" height="32" viewBox="0 0 33 32" fill="none" xmlns="http://www.w3.org/2000/svg">
<rect x="0.748535" width="32" height="32" rx="4" fill="white" fill-opacity="0.1"/>
<g clip-path="url(#clip0_0_820)">
<path d="M8.74854 16C8.74854 11.5888 12.3373 8 16.7485 8C18.5301 8 20.2163 8.57318 21.625 9.6576L19.766 12.0725C18.895 11.4021 17.8515 11.0476 16.7485 11.0476C14.0178 11.0476 11.7962 13.2693 11.7962 16C11.7962 18.7307 14.0178 20.9524 16.7485 20.9524C18.9479 20.9524 20.817 19.5114 21.4611 17.5238H16.7485V14.4762H24.7485V16C24.7485 20.4112 21.1597 24 16.7485 24C12.3373 24 8.74854 20.4112 8.74854 16Z" fill="white"/>
</g>
<defs>
<clipPath id="clip0_0_820">
<rect width="16" height="16" fill="white" transform="translate(8.74854 8)"/>
</clipPath>
</defs>
</svg>
