<svg width="33" height="32" viewBox="0 0 33 32" fill="none" xmlns="http://www.w3.org/2000/svg">
<rect x="0.506348" width="32" height="32" rx="4" fill="white" fill-opacity="0.1"/>
<g clip-path="url(#clip0_0_823)">
<path d="M24.4899 12.704C24.4525 11.8539 24.315 11.2694 24.118 10.763C23.9149 10.2254 23.6023 9.74412 23.1928 9.34401C22.7927 8.93768 22.3082 8.62195 21.7769 8.42196C21.2675 8.22502 20.6861 8.08754 19.8359 8.05006C18.9795 8.0094 18.7076 8 16.5353 8C14.363 8 14.0911 8.0094 13.2377 8.04688C12.3876 8.08437 11.8031 8.22197 11.2968 8.41878C10.7591 8.62195 10.2778 8.93451 9.8777 9.34401C9.47137 9.74412 9.15576 10.2286 8.95565 10.7599C8.75871 11.2694 8.62123 11.8507 8.58375 12.7009C8.54309 13.5574 8.53369 13.8293 8.53369 16.0016C8.53369 18.1739 8.54309 18.4458 8.58058 19.2991C8.61806 20.1492 8.75566 20.7337 8.9526 21.2401C9.15576 21.7777 9.47137 22.259 9.8777 22.6591C10.2778 23.0654 10.7623 23.3812 11.2936 23.5812C11.8031 23.7781 12.3844 23.9156 13.2347 23.9531C14.0879 23.9907 14.3599 24 16.5322 24C18.7045 24 18.9764 23.9907 19.8297 23.9531C20.6799 23.9156 21.2643 23.7781 21.7707 23.5812C22.8459 23.1654 23.6961 22.3153 24.1118 21.2401C24.3086 20.7306 24.4462 20.1492 24.4837 19.2991C24.5212 18.4458 24.5306 18.1739 24.5306 16.0016C24.5306 13.8293 24.5274 13.5574 24.4899 12.704ZM23.0491 19.2366C23.0147 20.018 22.8834 20.4399 22.774 20.7212C22.5052 21.4183 21.952 21.9715 21.2549 22.2403C20.9736 22.3497 20.5486 22.481 19.7703 22.5153C18.9263 22.5529 18.6732 22.5622 16.5384 22.5622C14.4036 22.5622 14.1473 22.5529 13.3065 22.5153C12.5251 22.481 12.1031 22.3497 11.8218 22.2403C11.4749 22.1121 11.1592 21.909 10.9029 21.6433C10.6373 21.3838 10.4341 21.0713 10.3059 20.7244C10.1965 20.4431 10.0652 20.018 10.0309 19.2397C9.99333 18.3958 9.98405 18.1426 9.98405 16.0078C9.98405 13.873 9.99333 13.6167 10.0309 12.776C10.0652 11.9946 10.1965 11.5726 10.3059 11.2913C10.4341 10.9443 10.6373 10.6287 10.9061 10.3723C11.1654 10.1066 11.478 9.90345 11.825 9.77537C12.1063 9.66597 12.5314 9.53472 13.3096 9.50029C14.1536 9.46281 14.4068 9.45341 16.5415 9.45341C18.6795 9.45341 18.9326 9.46281 19.7734 9.50029C20.5548 9.53472 20.9768 9.66597 21.2581 9.77537C21.605 9.90345 21.9207 10.1066 22.177 10.3723C22.4427 10.6317 22.6458 10.9443 22.774 11.2913C22.8834 11.5726 23.0147 11.9976 23.0491 12.776C23.0866 13.6199 23.096 13.873 23.096 16.0078C23.096 18.1426 23.0866 18.3927 23.0491 19.2366Z" fill="white"/>
<path d="M16.5355 11.8914C14.2664 11.8914 12.4253 13.7323 12.4253 16.0015C12.4253 18.2708 14.2664 20.1117 16.5355 20.1117C18.8047 20.1117 20.6456 18.2708 20.6456 16.0015C20.6456 13.7323 18.8047 11.8914 16.5355 11.8914ZM16.5355 18.6677C15.0634 18.6677 13.8693 17.4737 13.8693 16.0015C13.8693 14.5293 15.0634 13.3354 16.5355 13.3354C18.0077 13.3354 19.2016 14.5293 19.2016 16.0015C19.2016 17.4737 18.0077 18.6677 16.5355 18.6677Z" fill="white"/>
<path d="M21.7673 11.7288C21.7673 12.2587 21.3377 12.6884 20.8077 12.6884C20.2778 12.6884 19.8481 12.2587 19.8481 11.7288C19.8481 11.1988 20.2778 10.7693 20.8077 10.7693C21.3377 10.7693 21.7673 11.1988 21.7673 11.7288Z" fill="white"/>
</g>
<defs>
<clipPath id="clip0_0_823">
<rect width="16" height="16" fill="white" transform="translate(8.50635 8)"/>
</clipPath>
</defs>
</svg>
