<svg width="146" height="50" viewBox="0 0 146 50" fill="none" xmlns="http://www.w3.org/2000/svg">
<g opacity="0.2" clip-path="url(#clip0_0_977)">
<path d="M22.574 24.2997H28.8253V33.0797C26.8748 33.7066 24.412 34.0501 21.8521 34.0501C11.4766 34.0501 5.37852 25.1653 5.37852 16.4881C5.37852 7.97782 10.8943 2.00804 18.5896 2.00804C23.4591 2.00804 26.2926 3.65766 28.8273 5.95553V8.82011L33.5803 4.06717C30.574 2.03324 26.2208 0.10025 19.9986 0.10025C6.33923 0.10025 0.0957184 9.87201 0.0957184 17.9029C0.0957184 29.334 8.42176 36.2199 18.8846 36.2199C23.9578 36.2199 28.4624 35.4455 33.6657 33.9977V24.9265C33.6657 24.4627 33.8695 24.1444 34.1742 23.8649L35.8161 22.2231H24.6663L22.574 24.2997Z" fill="white"/>
<path d="M50.571 12.3659C42.7088 12.3659 37.8374 18.1106 37.8374 24.2084C37.8374 29.4718 41.7617 35.7211 49.7132 35.7211C57.3619 35.7211 62.0547 29.9648 62.0547 23.7601C62.0547 17.9805 57.4686 12.3678 50.571 12.3678V12.3659ZM49.2668 14.0408C54.8098 14.0408 57.2784 21.2624 57.2784 26.4132C57.2784 34.0734 51.5317 34.2248 50.8447 34.2248C48.2149 34.2248 46.3769 32.6352 45.0009 30.5509C43.7898 28.6295 42.606 25.0605 42.606 21.5729C42.606 18.0989 43.7433 16.4027 45.5327 15.1548C46.9961 14.2193 48.3663 14.0408 49.2648 14.0408H49.2668Z" fill="white"/>
<path d="M101.971 12.3659C95.1045 12.3659 91.3898 16.7132 91.3898 21.5671C91.3898 25.2623 94.037 29.4311 99.4984 29.4311H100.88C100.88 29.4311 100.504 30.3452 100.502 31.2282C100.502 32.5305 100.97 33.2621 101.963 34.3878C92.5659 34.9603 88.7891 38.7506 88.7891 42.8243C88.7891 46.3915 92.2049 49.9023 99.3839 49.9023C107.883 49.9023 112.284 45.1843 112.284 40.5536C112.284 37.2892 110.658 35.4998 106.54 32.414C105.329 31.4727 105.094 30.873 105.094 30.1685C105.094 29.1593 105.697 28.4917 105.919 28.2394C106.309 27.828 106.984 27.3583 107.236 27.1332C108.62 25.961 110.575 24.2259 110.575 20.7636C110.575 18.3881 109.587 16.3445 107.335 14.4309H110.084L112.149 12.3659H101.973H101.971ZM100.077 13.9107C101.323 13.9107 102.363 14.3513 103.462 15.2654C104.68 16.3639 106.627 19.3158 106.627 22.9683C106.627 26.91 103.564 27.9891 101.907 27.9891C101.096 27.9891 100.123 27.762 99.3004 27.1992C97.4722 26.0134 95.6576 22.8577 95.6576 19.1023C95.6576 15.7137 97.676 13.9107 100.077 13.9107ZM102.796 35.8841C103.32 35.8841 103.696 35.9268 103.696 35.9268C103.696 35.9268 104.933 36.8099 105.796 37.4697C107.807 39.0592 109.061 40.2742 109.061 42.4381C109.061 45.4133 106.301 47.7461 101.831 47.7461C96.9249 47.7461 93.1753 45.4618 93.1753 41.7316C93.1753 38.6419 95.7449 35.9831 102.796 35.8841Z" fill="white"/>
<path d="M113.639 35.04H123.065L124.502 33.6039L121.798 33.2662C121.07 33.1769 120.637 32.5481 120.637 31.9387V3.46569C120.637 2.90481 120.897 2.61756 121.088 2.43513L122.788 0.735016H114.749L112.657 2.82717H115.781V32.321C115.781 32.7402 115.65 33.0255 115.366 33.3185L113.639 35.04Z" fill="white"/>
<path d="M135.836 12.3659C130.573 12.3659 124.981 16.3774 124.981 23.5796C124.981 29.5281 128.993 35.7211 136.488 35.7211C138.357 35.7211 139.896 35.4805 141.338 34.8187C142.885 34.1064 144.374 32.9497 145.461 31.496C143.409 32.5305 141.736 33.2097 139.514 33.2097C135.291 33.2097 131.219 30.1627 129.795 24.5617L144.713 18.5317C143.852 15.4595 141.422 12.3659 135.838 12.3659H135.836ZM134.862 14.0136C137.686 14.0136 139.728 16.3367 139.728 18.1552C139.728 18.7433 139.359 19.0538 138.629 19.341L129.459 23.0498C129.459 23.0498 129.21 21.8951 129.21 20.6472C129.21 15.4129 132.995 14.0136 134.862 14.0136Z" fill="white"/>
<path d="M77.2513 12.3659C69.3891 12.3659 64.5177 18.1106 64.5177 24.2084C64.5177 29.4718 68.442 35.7211 76.3935 35.7211C84.0422 35.7211 88.735 29.9648 88.735 23.7601C88.735 17.9805 84.1489 12.3678 77.2513 12.3678V12.3659ZM75.9471 14.0408C81.49 14.0408 83.9587 21.2624 83.9587 26.4132C83.9587 34.0734 78.212 34.2248 77.525 34.2248C74.8952 34.2248 73.0573 32.6352 71.6812 30.5509C70.4702 28.6295 69.2862 25.0605 69.2862 21.5729C69.2862 18.0989 70.4236 16.4027 72.213 15.1548C73.6763 14.2193 75.0465 14.0408 75.9451 14.0408H75.9471Z" fill="white"/>
</g>
<defs>
<clipPath id="clip0_0_977">
<rect width="145.56" height="50" fill="white"/>
</clipPath>
</defs>
</svg>
