<svg width="52" height="53" viewBox="0 0 52 53" fill="none" xmlns="http://www.w3.org/2000/svg">
<rect width="52" height="53" rx="6" fill="#73F2C4"/>
<g clip-path="url(#clip0_8_9)">
<path d="M44.8276 43.6562H43.5776V20.5315C43.5776 19.8843 43.0529 19.3596 42.4058 19.3596H37.7183C37.0711 19.3596 36.5465 19.8843 36.5465 20.5315V43.6562H34.2027V28.3439C34.2027 27.6967 33.6781 27.172 33.0309 27.172H28.3434C27.6963 27.172 27.1716 27.6967 27.1716 28.3439V43.6562H24.8279V32.6407C24.8279 31.9935 24.3032 31.4688 23.656 31.4688H18.9686C18.3214 31.4688 17.7967 31.9935 17.7967 32.6407V43.6562H15.453V35.4532C15.453 34.806 14.9283 34.2813 14.2811 34.2813H9.5937C8.94652 34.2813 8.42184 34.806 8.42184 35.4532V43.6562H7.17186C6.52468 43.6562 6 44.1808 6 44.828C6 45.4752 6.52468 45.9999 7.17186 45.9999H44.8276C45.4748 45.9999 45.9995 45.4752 45.9995 44.828C45.9995 44.1808 45.4748 43.6562 44.8276 43.6562Z" fill="black"/>
<path d="M7.17186 31.1801C14.4857 31.1801 22.417 28.5535 29.5048 23.7839C35.0559 20.0484 39.6833 15.2764 42.5576 10.39L43.6957 14.6373C43.836 15.1609 44.5135 15.6132 45.1309 15.4659C45.7605 15.3158 46.127 14.6558 45.9595 14.0307L44.0406 6.86907C43.873 6.244 43.2307 5.87291 42.6054 6.04049L35.4437 7.95944C34.8186 8.12694 34.4477 8.76951 34.6152 9.39466C34.7827 10.0198 35.425 10.3909 36.0504 10.2232L40.664 8.98701C37.9824 13.6468 33.5506 18.2364 28.1963 21.8394C21.4911 26.3515 14.0245 28.8364 7.17186 28.8364C6.52468 28.8364 6 29.3611 6 30.0083C6 30.6555 6.52468 31.1801 7.17186 31.1801Z" fill="black"/>
</g>
<defs>
<clipPath id="clip0_8_9">
<rect width="40" height="40" fill="white" transform="translate(6 6)"/>
</clipPath>
</defs>
</svg>
