<svg width="52" height="53" viewBox="0 0 52 53" fill="none" xmlns="http://www.w3.org/2000/svg">
<rect width="52" height="53" rx="6" fill="#E1FC6C"/>
<g clip-path="url(#clip0_8_10)">
<path d="M27 27.1418C30.7538 27.1418 33.7969 24.0988 33.7969 20.345C33.7969 16.5912 30.7538 13.5481 27 13.5481C23.2462 13.5481 20.2031 16.5912 20.2031 20.345C20.2031 24.0988 23.2462 27.1418 27 27.1418Z" fill="black"/>
<path d="M40.75 27.1418C43.1231 27.1418 45.0469 25.2181 45.0469 22.845C45.0469 20.4719 43.1231 18.5481 40.75 18.5481C38.3769 18.5481 36.4531 20.4719 36.4531 22.845C36.4531 25.2181 38.3769 27.1418 40.75 27.1418Z" fill="black"/>
<path d="M13.25 27.1418C15.6231 27.1418 17.5469 25.2181 17.5469 22.845C17.5469 20.4719 15.6231 18.5481 13.25 18.5481C10.8769 18.5481 8.95312 20.4719 8.95312 22.845C8.95312 25.2181 10.8769 27.1418 13.25 27.1418Z" fill="black"/>
<path d="M17.4836 31.0004C15.7922 29.6146 14.2604 29.7981 12.3047 29.7981C9.37969 29.7981 7 32.1637 7 35.0707V43.6028C7 44.8653 8.03047 45.8918 9.29766 45.8918C14.7684 45.8918 14.1094 45.9908 14.1094 45.6559C14.1094 39.6101 13.3933 35.1764 17.4836 31.0004Z" fill="black"/>
<path d="M28.8604 29.8292C25.4444 29.5443 22.4753 29.8325 19.9143 31.9464C15.6286 35.3792 16.4534 40.0014 16.4534 45.6558C16.4534 47.1518 17.6705 48.3917 19.1893 48.3917C35.6801 48.3917 36.3364 48.9237 37.3143 46.7582C37.635 46.0258 37.5471 46.2585 37.5471 39.2527C37.5471 33.6882 32.7289 29.8292 28.8604 29.8292Z" fill="black"/>
<path d="M41.6955 29.7979C39.7291 29.7979 38.2057 29.6163 36.5166 31.0002C40.5764 35.1452 39.8908 39.2764 39.8908 45.6557C39.8908 45.9927 39.3437 45.8916 44.6205 45.8916C45.933 45.8916 47.0002 44.8284 47.0002 43.5213V35.0705C47.0002 32.1635 44.6205 29.7979 41.6955 29.7979Z" fill="black"/>
</g>
<defs>
<clipPath id="clip0_8_10">
<rect width="40" height="40" fill="white" transform="translate(7 11)"/>
</clipPath>
</defs>
</svg>
