<svg width="196" height="70" viewBox="0 0 196 70" fill="none" xmlns="http://www.w3.org/2000/svg">
<g opacity="0.2">
<path d="M15.1166 11.4563C11.3342 13.0395 7.17607 17.5124 5.8628 23.1269C4.19964 30.2407 11.1208 33.2488 11.6885 32.2625C12.3566 31.1035 10.4483 30.7116 10.0555 27.0207C9.54778 22.2535 11.764 16.9267 14.5533 14.5895C15.0717 14.1553 15.0471 14.7596 15.0471 15.8776C15.0471 17.8767 14.9366 35.8228 14.9366 39.5682C14.9366 44.6361 14.7273 46.2365 14.3513 47.8178C13.9704 49.4204 13.358 50.5032 13.8221 50.9203C14.3405 51.3869 16.5541 50.2771 17.8355 48.4886C19.3722 46.3435 19.9101 43.7674 20.0067 40.9698C20.1233 37.5974 20.1183 32.2461 20.1233 29.1938C20.128 26.3943 20.1705 18.1969 20.0742 13.2689C20.0507 12.0601 16.6984 10.792 15.1164 11.4548M149.429 35.1739C149.307 37.8086 148.724 39.868 148 41.3206C146.599 44.1327 143.691 45.0059 142.457 40.9634C141.784 38.7598 141.753 35.0796 142.236 32.0045C142.729 28.8719 144.104 26.5061 146.38 26.7194C148.626 26.9303 149.677 29.8239 149.429 35.1739ZM111.574 51.5203C111.544 55.898 110.855 59.7364 109.378 60.8512C107.282 62.432 104.465 61.2462 105.049 58.0517C105.565 55.2249 108.005 52.338 111.58 48.8107C111.58 48.8107 111.588 49.6151 111.574 51.5203ZM111.002 35.1484C110.874 37.5481 110.252 39.9588 109.573 41.3209C108.172 44.133 105.243 45.0122 104.03 40.9637C103.2 38.1976 103.399 34.6176 103.809 32.3619C104.342 29.4352 105.633 26.72 107.953 26.72C110.208 26.72 111.32 29.194 111.002 35.1484ZM89.0727 35.1117C88.9353 37.6532 88.4394 39.7778 87.6438 41.3209C86.2042 44.1137 83.3563 44.9994 82.1002 40.9637C81.1947 38.0537 81.503 34.0858 81.8797 31.9423C82.4386 28.7615 83.8384 26.5064 86.0235 26.72C88.2681 26.9393 89.3592 29.8239 89.0727 35.1117ZM189.57 38.0803C189.022 38.0803 188.771 38.6459 188.564 39.5979C187.846 42.9081 187.09 43.6556 186.116 43.6556C185.028 43.6556 184.051 42.0165 183.799 38.7354C183.602 36.1554 183.634 31.4055 183.886 26.6806C183.938 25.7098 183.67 24.7493 181.066 23.8034C179.946 23.3965 178.317 22.7974 177.506 24.7549C175.215 30.285 174.318 34.6755 174.108 36.4591C174.097 36.5514 173.984 36.5703 173.964 36.3546C173.829 34.9261 173.529 32.3302 173.491 26.8762C173.484 25.8121 173.259 24.9063 172.084 24.1648C171.322 23.6836 169.008 22.8326 168.175 23.845C167.453 24.6731 166.617 26.9014 165.748 29.5429C165.042 31.6897 164.55 33.1421 164.55 33.1421C164.55 33.1421 164.559 27.3493 164.568 25.1521C164.571 24.3231 164.003 24.0469 163.831 23.9968C163.06 23.7729 161.539 23.3987 160.894 23.3987C160.098 23.3987 159.903 23.8438 159.903 24.4923C159.903 24.5773 159.777 32.119 159.777 37.3926C159.777 37.6216 159.777 37.8715 159.779 38.137C159.339 40.5608 157.91 43.851 156.357 43.851C154.802 43.851 154.068 42.4755 154.068 36.1886C154.068 32.521 154.178 30.9262 154.232 28.2736C154.264 26.7457 154.324 25.5724 154.321 25.3062C154.309 24.4897 152.898 24.0781 152.241 23.926C151.581 23.7727 151.007 23.7133 150.559 23.7388C149.925 23.7745 149.477 24.1904 149.477 24.7625C149.477 25.0691 149.48 25.6524 149.48 25.6524C148.664 24.3693 147.35 23.4762 146.477 23.2175C144.123 22.5185 141.667 23.1378 139.815 25.7298C138.343 27.7893 137.455 30.1219 137.106 33.4731C136.851 35.9232 136.934 38.4076 137.388 40.5088C136.84 42.8797 135.822 43.851 134.707 43.851C133.088 43.851 131.915 41.2094 132.051 36.6409C132.141 33.636 132.742 31.5272 133.4 28.4764C133.68 27.1759 133.452 26.495 132.881 25.8424C132.357 25.244 131.241 24.9382 129.637 25.3143C128.494 25.5824 126.86 25.8707 125.365 26.0922C125.365 26.0922 125.455 25.7323 125.529 25.0978C125.918 21.7701 122.302 22.0401 121.149 23.103C120.46 23.7375 119.991 24.4859 119.813 25.8315C119.531 27.9669 121.273 28.9741 121.273 28.9741C120.701 31.5897 119.301 35.0066 117.855 37.477C117.08 38.8005 116.488 39.7813 115.723 40.8239C115.72 40.4357 115.718 40.0475 115.716 39.6611C115.699 34.162 115.772 29.834 115.804 28.2741C115.836 26.7463 115.897 25.6041 115.894 25.3378C115.885 24.7406 115.536 24.5151 114.811 24.2295C114.169 23.977 113.411 23.8021 112.624 23.7412C111.632 23.6637 111.033 24.1903 111.049 24.8131C111.052 24.9306 111.052 25.6526 111.052 25.6526C110.235 24.3695 108.922 23.4765 108.048 23.2177C105.695 22.519 103.239 23.1384 101.387 25.73C99.9151 27.7895 98.9512 30.6795 98.6781 33.4478C98.4236 36.028 98.4706 38.2206 98.8174 40.0676C98.4432 41.9172 97.3673 43.8513 96.1508 43.8513C94.5955 43.8513 93.7106 42.4757 93.7106 36.1888C93.7106 32.5212 93.8207 30.9265 93.8748 28.2741C93.9062 26.7463 93.9669 25.5727 93.9635 25.3067C93.952 24.4902 92.5401 24.0787 91.8832 23.9263C91.1957 23.7673 90.6023 23.7088 90.1466 23.7424C89.5453 23.7872 89.1226 24.3257 89.1226 24.7272V25.6526C88.3061 24.3695 86.9928 23.4765 86.1191 23.2177C83.7657 22.519 81.3236 23.1483 79.4576 25.73C78.2408 27.4134 77.2557 29.2798 76.7486 33.4111C76.6021 34.605 76.5374 35.723 76.5458 36.768C76.0606 39.7355 73.9174 43.1557 72.1644 43.1557C71.1385 43.1557 70.1615 41.166 70.1615 36.9254C70.1615 31.2767 70.5111 23.2342 70.5702 22.459C70.5702 22.459 72.7852 22.4214 73.2142 22.4164C74.319 22.4043 75.3197 22.4304 76.7913 22.3551C77.5294 22.3175 78.2404 19.6686 77.4787 19.3407C77.1334 19.1924 74.6932 19.0624 73.7259 19.0418C72.9125 19.0234 70.648 18.8558 70.648 18.8558C70.648 18.8558 70.8511 13.5175 70.8984 12.9536C70.9385 12.4836 70.3304 12.2416 69.9817 12.0948C69.1338 11.7362 68.3752 11.5644 67.4759 11.3791C66.2336 11.1228 65.6699 11.3735 65.5598 12.422C65.394 14.0134 65.3082 18.6745 65.3082 18.6745C64.3965 18.6745 61.2822 18.4962 60.3703 18.4962C59.5229 18.4962 58.6085 22.1402 59.7799 22.185C61.1277 22.2373 63.4764 22.2824 65.0335 22.3293C65.0335 22.3293 64.9642 30.5044 64.9642 33.0282C64.9642 33.2968 64.9665 33.5553 64.967 33.8062C64.11 38.2729 61.0916 40.6858 61.0916 40.6858C61.7398 37.7308 60.4157 35.5117 58.0305 33.6333C57.1518 32.9411 55.4171 31.6306 53.4761 30.1946C53.4761 30.1946 54.6003 29.0867 55.5972 26.8577C56.3036 25.2788 56.3341 23.4719 54.6003 23.0734C51.7355 22.4146 49.3733 24.5185 48.6688 26.7647C48.1229 28.5047 48.4141 29.7959 49.4835 31.1371C49.5615 31.2351 49.6461 31.3352 49.7335 31.436C49.0869 32.6825 48.1985 34.3606 47.4461 35.662C45.3577 39.2751 43.78 42.1331 42.5878 42.1331C41.6347 42.1331 41.6474 39.2315 41.6474 36.5149C41.6474 34.1729 41.8204 30.6519 41.9585 27.0063C42.0042 25.8007 41.4014 25.1139 40.3908 24.4918C39.7768 24.1139 38.4663 23.3708 37.7074 23.3708C36.5714 23.3708 33.2939 23.5254 30.197 32.4833C29.8068 33.6124 29.0401 35.6697 29.0401 35.6697L29.106 24.8974C29.106 24.6449 28.9715 24.4007 28.6635 24.2336C28.1417 23.9503 26.7479 23.3708 25.5085 23.3708C24.918 23.3708 24.6234 23.6454 24.6234 24.1929L24.5153 41.0463C24.5153 42.3268 24.5486 43.8207 24.6752 44.4741C24.8014 45.1283 25.0057 45.6604 25.2588 45.9771C25.5116 46.2931 25.8039 46.5342 26.2859 46.6337C26.7345 46.726 29.191 47.0415 29.3187 46.1027C29.4716 44.9777 29.4775 43.7609 30.7674 39.2226C32.7755 32.157 35.3937 28.7097 36.6245 27.4854C36.8397 27.2714 37.0854 27.2586 37.0736 27.6088C37.021 29.1579 36.8362 33.0286 36.7118 36.3171C36.3784 45.1173 37.9794 46.7485 40.2672 46.7485C42.0174 46.7485 44.4847 45.0093 47.1296 40.6071C48.7785 37.8636 50.3794 35.1736 51.5297 33.2348C52.3313 33.9769 53.2308 34.7755 54.1298 35.6287C56.2188 37.6114 56.9047 39.4954 56.4496 41.2827C56.1015 42.649 54.7908 44.0571 52.4579 42.6885C51.7779 42.2892 51.4877 41.9807 50.804 41.5306C50.4367 41.2888 49.8758 41.2165 49.5396 41.4698C48.6662 42.1284 48.1666 42.966 47.8814 44.003C47.6039 45.0121 48.6145 45.5456 49.6621 46.0121C50.5642 46.4137 52.503 46.7776 53.7394 46.819C58.557 46.9801 62.4162 44.493 65.1027 38.0772C65.5836 43.618 67.6303 46.7534 71.1863 46.7534C73.5636 46.7534 75.9472 43.6804 76.9896 40.6574C77.2888 41.8897 77.7317 42.9613 78.3037 43.8675C81.0438 48.2088 86.3593 47.2744 89.0294 43.5879C89.855 42.4488 89.9806 42.0395 89.9806 42.0395C90.37 45.5204 93.1732 46.7366 94.7783 46.7366C96.5759 46.7366 98.4319 45.8868 99.7327 42.9583C99.8851 43.2761 100.052 43.5796 100.233 43.8674C102.973 48.2087 108.289 47.2743 110.959 43.5878C111.085 43.4149 111.194 43.258 111.289 43.1172L111.368 45.4037C111.368 45.4037 109.845 46.801 108.91 47.6582C104.794 51.4337 101.665 54.2982 101.435 57.6339C101.14 61.8872 104.589 63.468 107.199 63.6751C109.97 63.8951 112.344 62.3641 113.802 60.2215C115.086 58.3357 115.925 54.2767 115.864 50.2679C115.839 48.6626 115.799 46.6214 115.767 44.4335C117.213 42.7539 118.843 40.6309 120.344 38.1459C121.979 35.4379 123.731 31.8011 124.629 28.9709C124.629 28.9709 126.151 28.9839 127.776 28.8775C128.296 28.8436 128.445 28.9497 128.349 29.3307C128.233 29.7911 126.296 37.2619 128.064 42.2387C129.274 45.6457 132.001 46.7418 133.619 46.7418C135.512 46.7418 137.323 45.3122 138.293 43.1893C138.41 43.426 138.532 43.655 138.666 43.8664C141.406 48.2078 146.703 47.2678 149.391 43.5869C149.998 42.7564 150.343 42.0384 150.343 42.0384C150.92 45.641 153.721 46.754 155.326 46.754C156.998 46.754 158.584 46.0687 159.871 43.0232C159.925 44.3641 160.009 45.4606 160.143 45.8063C160.225 46.0177 160.7 46.2831 161.045 46.4112C162.574 46.9783 164.134 46.7101 164.711 46.5935C165.111 46.5126 165.422 46.1919 165.465 45.3639C165.577 43.1897 165.508 39.5366 166.167 36.8218C167.274 32.2655 168.306 30.4981 168.795 29.6231C169.069 29.1329 169.379 29.052 169.39 29.5709C169.413 30.6207 169.465 33.7035 169.894 37.8455C170.208 40.8917 170.629 42.6923 170.952 43.2621C171.874 44.8917 173.014 44.9689 173.941 44.9689C174.531 44.9689 175.765 44.8058 175.655 43.7688C175.601 43.2633 175.695 40.1394 176.786 35.6507C177.498 32.7193 178.686 30.0707 179.114 29.1024C179.272 28.7453 179.346 29.0268 179.343 29.0816C179.253 31.1004 179.05 37.7034 179.873 41.3147C180.988 46.2069 184.213 46.7543 185.336 46.7543C187.736 46.7543 189.698 44.9293 190.359 40.1274C190.518 38.9718 190.282 38.0795 189.576 38.0795" fill="white"/>
</g>
</svg>
