<svg width="739" height="235" viewBox="0 0 739 235" fill="none" xmlns="http://www.w3.org/2000/svg">
<g opacity="0.2">
<path opacity="0.31" d="M627.482 25.5983L734.287 230.447L541.994 128.723L627.482 25.5983Z" fill="#4F4F4F"/>
<path opacity="0.31" d="M251.4 10.6034L395.472 156.138L464.648 107.961L251.4 10.6034Z" fill="#4F4F4F"/>
<path opacity="0.31" d="M93.5889 128.724L251.403 10.6034L193.085 186.986L93.5889 128.724Z" fill="#4F4F4F"/>
<path d="M22.4794 4.46143L11.4423 194.037L72.349 84.7767L232.765 175.663L518.248 11.6881L464.648 107.96L698.457 55.8061L566.961 198.137L734.295 230.444" stroke="#C6C6C6" stroke-width="1.28042" stroke-miterlimit="10" stroke-linecap="round" stroke-linejoin="round"/>
<path d="M22.7963 194.041C22.635 200.335 17.4032 205.308 11.1087 205.147C4.81417 204.986 -0.15898 199.754 0.00235203 193.459C0.163684 187.165 5.39553 182.192 11.69 182.353C17.9846 182.512 22.9576 187.746 22.7963 194.041Z" fill="#C6C6C6"/>
<path d="M578.316 198.142C578.155 204.436 572.923 209.41 566.629 209.248C560.334 209.087 555.361 203.855 555.522 197.561C555.684 191.266 560.916 186.293 567.21 186.454C573.505 186.613 578.478 191.845 578.316 198.142Z" fill="#C6C6C6"/>
<path d="M529.601 11.6914C529.439 17.986 524.207 22.9591 517.913 22.7978C511.618 22.6364 506.645 17.4047 506.807 11.1101C506.968 4.81561 512.2 -0.157515 518.494 0.00381689C524.789 0.162588 529.762 5.39692 529.601 11.6914Z" fill="#C6C6C6"/>
<path d="M26.7999 4.86508C26.7358 7.38238 24.6436 9.37215 22.1263 9.30557C19.609 9.23899 17.6193 7.14935 17.6859 4.63205C17.7499 2.11475 19.8421 0.127547 22.3594 0.191568C24.8741 0.255589 26.8639 2.35035 26.7999 4.86508Z" fill="#C6C6C6"/>
<path d="M469.203 108.076C469.139 110.593 467.047 112.583 464.53 112.519C462.012 112.455 460.025 110.363 460.089 107.846C460.153 105.328 462.245 103.339 464.763 103.405C467.277 103.464 469.267 105.559 469.203 108.076Z" fill="#C6C6C6"/>
<path d="M703.579 55.8042C703.515 58.3215 701.423 60.3087 698.905 60.2446C696.388 60.1806 694.401 58.0884 694.465 55.5711C694.529 53.0538 696.621 51.0641 699.139 51.1281C701.653 51.1947 703.643 53.2869 703.579 55.8042Z" fill="#C6C6C6"/>
<path d="M738.851 230.558C738.787 233.075 736.694 235.065 734.177 234.999C731.66 234.935 729.67 232.842 729.737 230.325C729.801 227.808 731.893 225.821 734.41 225.885C736.928 225.949 738.915 228.041 738.851 230.558Z" fill="#C6C6C6"/>
<path d="M76.6785 85.1811C76.6145 87.6984 74.5222 89.6856 72.0049 89.6216C69.4876 89.5576 67.4979 87.4654 67.5619 84.9481C67.6259 82.4308 69.7181 80.4436 72.2354 80.5076C74.7527 80.5716 76.7451 82.6638 76.6785 85.1811Z" fill="#C6C6C6"/>
<path d="M237.328 175.781C237.264 178.298 235.172 180.288 232.655 180.221C230.137 180.157 228.148 178.065 228.214 175.548C228.278 173.03 230.37 171.041 232.888 171.107C235.405 171.171 237.392 173.263 237.328 175.781Z" fill="#C6C6C6"/>
</g>
</svg>
