<svg width="20" height="20" viewBox="0 0 20 20" fill="none" xmlns="http://www.w3.org/2000/svg">
<g clip-path="url(#clip0_0_339)">
<path d="M11.3357 14.0905C11.1312 14.1096 10.9259 14.0635 10.7493 13.9587C10.6202 13.8262 10.5584 13.6423 10.5811 13.4587C10.5859 13.3059 10.6041 13.1538 10.6357 13.0042C10.6662 12.8325 10.7056 12.6626 10.7538 12.4951L11.2902 10.6496C11.3455 10.4675 11.3821 10.2801 11.3993 10.0905C11.3993 9.88597 11.4266 9.74504 11.4266 9.66324C11.438 9.29867 11.2823 8.94882 11.0038 8.71324C10.6613 8.45027 10.2347 8.32101 9.80383 8.34961C9.49504 8.35425 9.18863 8.4048 8.89473 8.49961C8.57352 8.59961 8.23563 8.71929 7.88109 8.85871L7.72656 9.45871C7.83109 9.42234 7.9584 9.38144 8.10383 9.33597C8.24258 9.29488 8.38641 9.27343 8.53109 9.27234C8.73406 9.25035 8.93836 9.30019 9.10836 9.41324C9.22383 9.55101 9.27801 9.73 9.25836 9.90871C9.25785 10.0616 9.24109 10.2139 9.20836 10.3632C9.17652 10.5223 9.13563 10.6905 9.08563 10.8678L8.54473 12.7223C8.50113 12.8947 8.46625 13.0691 8.4402 13.245C8.41895 13.3956 8.40832 13.5475 8.40836 13.6996C8.40613 14.0666 8.57398 14.4141 8.86289 14.6405C9.2107 14.9075 9.64336 15.0399 10.0811 15.0132C10.3893 15.0195 10.6964 14.975 10.9902 14.8814C11.2477 14.7935 11.5917 14.6677 12.022 14.5041L12.1675 13.9314C12.0509 13.9797 11.9309 14.0192 11.8084 14.0495C11.6534 14.0849 11.4944 14.0987 11.3357 14.0905Z" fill="#808382"/>
<path d="M11.9061 5.34132C11.6587 5.11413 11.3328 4.9919 10.997 5.00042C10.6614 4.99284 10.3358 5.11495 10.0879 5.34132C9.63351 5.73311 9.58277 6.41909 9.9746 6.8735C10.0095 6.91401 10.0474 6.95186 10.0879 6.98678C10.6055 7.44979 11.3884 7.44979 11.906 6.98678C12.3604 6.59112 12.408 5.90206 12.0124 5.44768C11.9795 5.40983 11.9439 5.37428 11.9061 5.34132Z" fill="#808382"/>
<path d="M10 0C4.47715 0 0 4.47715 0 10C0 15.5229 4.47715 20 10 20C15.5229 20 20 15.5229 20 10C20 4.47715 15.5229 0 10 0ZM10 19.0909C4.97922 19.0909 0.909102 15.0208 0.909102 10C0.909102 4.97922 4.97922 0.909102 10 0.909102C15.0208 0.909102 19.0909 4.97922 19.0909 10C19.0909 15.0208 15.0208 19.0909 10 19.0909Z" fill="#808382"/>
</g>
<defs>
<clipPath id="clip0_0_339">
<rect width="20" height="20" fill="white"/>
</clipPath>
</defs>
</svg>
