<svg width="187" height="51" viewBox="0 0 187 51" fill="none" xmlns="http://www.w3.org/2000/svg">
<path d="M45.9766 24.7598H47.6855C47.6309 25.4115 47.4486 25.9925 47.1387 26.5029C46.8288 27.0088 46.3936 27.4076 45.833 27.6992C45.2725 27.9909 44.5911 28.1367 43.7891 28.1367C43.1738 28.1367 42.6201 28.0273 42.1279 27.8086C41.6357 27.5853 41.2142 27.2708 40.8633 26.8652C40.5124 26.4551 40.2435 25.9606 40.0566 25.3818C39.8743 24.8031 39.7832 24.1559 39.7832 23.4404V22.6133C39.7832 21.8978 39.8766 21.2507 40.0635 20.6719C40.2549 20.0931 40.5283 19.5986 40.8838 19.1885C41.2393 18.7738 41.6654 18.457 42.1621 18.2383C42.6634 18.0195 43.2262 17.9102 43.8506 17.9102C44.6436 17.9102 45.3135 18.056 45.8604 18.3477C46.4072 18.6393 46.8311 19.0426 47.1318 19.5576C47.4372 20.0726 47.624 20.6628 47.6924 21.3281H45.9834C45.9378 20.8997 45.8376 20.5329 45.6826 20.2275C45.5322 19.9222 45.3089 19.6898 45.0127 19.5303C44.7165 19.3662 44.3291 19.2842 43.8506 19.2842C43.4587 19.2842 43.1169 19.3571 42.8252 19.5029C42.5335 19.6488 42.2897 19.863 42.0938 20.1455C41.8978 20.4281 41.7497 20.7767 41.6494 21.1914C41.5537 21.6016 41.5059 22.071 41.5059 22.5996V23.4404C41.5059 23.9417 41.5492 24.3975 41.6357 24.8076C41.7269 25.2132 41.8636 25.5618 42.0459 25.8535C42.2327 26.1452 42.4697 26.3708 42.7568 26.5303C43.0439 26.6898 43.388 26.7695 43.7891 26.7695C44.2767 26.7695 44.6709 26.6921 44.9717 26.5371C45.277 26.3822 45.5072 26.1566 45.6621 25.8604C45.8216 25.5596 45.9264 25.1927 45.9766 24.7598ZM58.5585 26.6396V28H53.5614V26.6396H58.5585ZM54.04 18.0469V28H52.3241V18.0469H54.04ZM64.7967 18.0469V28H63.0809V18.0469H64.7967ZM75.8884 24.7598H77.5974C77.5427 25.4115 77.3604 25.9925 77.0505 26.5029C76.7407 27.0088 76.3054 27.4076 75.7449 27.6992C75.1843 27.9909 74.503 28.1367 73.7009 28.1367C73.0857 28.1367 72.532 28.0273 72.0398 27.8086C71.5476 27.5853 71.1261 27.2708 70.7752 26.8652C70.4242 26.4551 70.1554 25.9606 69.9685 25.3818C69.7862 24.8031 69.6951 24.1559 69.6951 23.4404V22.6133C69.6951 21.8978 69.7885 21.2507 69.9754 20.6719C70.1668 20.0931 70.4402 19.5986 70.7957 19.1885C71.1511 18.7738 71.5772 18.457 72.074 18.2383C72.5753 18.0195 73.1381 17.9102 73.7625 17.9102C74.5554 17.9102 75.2254 18.056 75.7722 18.3477C76.3191 18.6393 76.7429 19.0426 77.0437 19.5576C77.349 20.0726 77.5359 20.6628 77.6043 21.3281H75.8953C75.8497 20.8997 75.7494 20.5329 75.5945 20.2275C75.4441 19.9222 75.2208 19.6898 74.9246 19.5303C74.6283 19.3662 74.241 19.2842 73.7625 19.2842C73.3705 19.2842 73.0287 19.3571 72.7371 19.5029C72.4454 19.6488 72.2016 19.863 72.0056 20.1455C71.8097 20.4281 71.6615 20.7767 71.5613 21.1914C71.4656 21.6016 71.4177 22.071 71.4177 22.5996V23.4404C71.4177 23.9417 71.461 24.3975 71.5476 24.8076C71.6388 25.2132 71.7755 25.5618 71.9578 25.8535C72.1446 26.1452 72.3816 26.3708 72.6687 26.5303C72.9558 26.6898 73.2999 26.7695 73.7009 26.7695C74.1886 26.7695 74.5828 26.6921 74.8836 26.5371C75.1889 26.3822 75.419 26.1566 75.574 25.8604C75.7335 25.5596 75.8383 25.1927 75.8884 24.7598ZM83.9518 18.0469V28H82.236V18.0469H83.9518ZM89.9333 18.0469L85.9001 22.8389L83.6032 25.2725L83.3024 23.5703L84.943 21.5469L87.8415 18.0469H89.9333ZM88.0876 28L84.8132 23.2832L85.9958 22.1143L90.1247 28H88.0876ZM99.8219 24.7598H101.531C101.476 25.4115 101.294 25.9925 100.984 26.5029C100.674 27.0088 100.239 27.4076 99.6783 27.6992C99.1178 27.9909 98.4365 28.1367 97.6344 28.1367C97.0191 28.1367 96.4654 28.0273 95.9732 27.8086C95.4811 27.5853 95.0595 27.2708 94.7086 26.8652C94.3577 26.4551 94.0888 25.9606 93.902 25.3818C93.7197 24.8031 93.6285 24.1559 93.6285 23.4404V22.6133C93.6285 21.8978 93.7219 21.2507 93.9088 20.6719C94.1002 20.0931 94.3736 19.5986 94.7291 19.1885C95.0846 18.7738 95.5107 18.457 96.0074 18.2383C96.5087 18.0195 97.0716 17.9102 97.6959 17.9102C98.4889 17.9102 99.1588 18.056 99.7057 18.3477C100.253 18.6393 100.676 19.0426 100.977 19.5576C101.282 20.0726 101.469 20.6628 101.538 21.3281H99.8287C99.7831 20.8997 99.6829 20.5329 99.5279 20.2275C99.3775 19.9222 99.1542 19.6898 98.858 19.5303C98.5618 19.3662 98.1744 19.2842 97.6959 19.2842C97.304 19.2842 96.9622 19.3571 96.6705 19.5029C96.3788 19.6488 96.135 19.863 95.9391 20.1455C95.7431 20.4281 95.595 20.7767 95.4947 21.1914C95.399 21.6016 95.3512 22.071 95.3512 22.5996V23.4404C95.3512 23.9417 95.3945 24.3975 95.4811 24.8076C95.5722 25.2132 95.7089 25.5618 95.8912 25.8535C96.0781 26.1452 96.315 26.3708 96.6021 26.5303C96.8893 26.6898 97.2333 26.7695 97.6344 26.7695C98.122 26.7695 98.5162 26.6921 98.817 26.5371C99.1223 26.3822 99.3525 26.1566 99.5074 25.8604C99.6669 25.5596 99.7717 25.1927 99.8219 24.7598ZM110.045 19.373L107.072 28H105.274L109.02 18.0469H110.168L110.045 19.373ZM112.534 28L109.553 19.373L109.423 18.0469H110.579L114.338 28H112.534ZM112.39 24.3086V25.6689H106.976V24.3086H112.39ZM118.533 18.0469H122.053C122.81 18.0469 123.455 18.1608 123.988 18.3887C124.521 18.6165 124.929 18.9538 125.211 19.4004C125.498 19.8424 125.642 20.3893 125.642 21.041C125.642 21.5378 125.551 21.9753 125.369 22.3535C125.186 22.7318 124.929 23.0508 124.596 23.3105C124.263 23.5658 123.867 23.764 123.407 23.9053L122.887 24.1582H119.722L119.708 22.7979H122.081C122.491 22.7979 122.832 22.7249 123.106 22.5791C123.379 22.4333 123.584 22.235 123.721 21.9844C123.862 21.7292 123.933 21.4421 123.933 21.123C123.933 20.7767 123.865 20.4759 123.728 20.2207C123.596 19.9609 123.391 19.7627 123.113 19.626C122.835 19.4847 122.482 19.4141 122.053 19.4141H120.248V28H118.533V18.0469ZM124.213 28L121.875 23.5293L123.673 23.5225L126.045 27.9111V28H124.213ZM134.061 18.0469V28H132.359V18.0469H134.061ZM137.185 18.0469V19.4141H129.262V18.0469H137.185ZM148.092 26.6396V28H142.808V26.6396H148.092ZM143.293 18.0469V28H141.577V18.0469H143.293ZM147.402 22.2031V23.543H142.808V22.2031H147.402ZM148.058 18.0469V19.4141H142.808V18.0469H148.058ZM158.808 26.6396V28H153.811V26.6396H158.808ZM154.289 18.0469V28H152.573V18.0469H154.289ZM163.118 27.1797C163.118 26.9245 163.205 26.7103 163.378 26.5371C163.551 26.3594 163.786 26.2705 164.082 26.2705C164.383 26.2705 164.618 26.3594 164.786 26.5371C164.959 26.7103 165.046 26.9245 165.046 27.1797C165.046 27.4349 164.959 27.6491 164.786 27.8223C164.618 27.9954 164.383 28.082 164.082 28.082C163.786 28.082 163.551 27.9954 163.378 27.8223C163.205 27.6491 163.118 27.4349 163.118 27.1797ZM172.022 18.0469V28H170.307V18.0469H172.022ZM185.172 22.75V23.2969C185.172 24.0488 185.074 24.7233 184.878 25.3203C184.682 25.9173 184.402 26.4255 184.037 26.8447C183.677 27.264 183.244 27.5853 182.738 27.8086C182.232 28.0273 181.672 28.1367 181.057 28.1367C180.446 28.1367 179.888 28.0273 179.382 27.8086C178.88 27.5853 178.445 27.264 178.076 26.8447C177.707 26.4255 177.42 25.9173 177.215 25.3203C177.014 24.7233 176.914 24.0488 176.914 23.2969V22.75C176.914 21.998 177.014 21.3258 177.215 20.7334C177.415 20.1364 177.698 19.6283 178.062 19.209C178.432 18.7852 178.867 18.4639 179.368 18.2451C179.874 18.0218 180.432 17.9102 181.043 17.9102C181.658 17.9102 182.219 18.0218 182.725 18.2451C183.23 18.4639 183.666 18.7852 184.03 19.209C184.395 19.6283 184.675 20.1364 184.871 20.7334C185.072 21.3258 185.172 21.998 185.172 22.75ZM183.456 23.2969V22.7363C183.456 22.1803 183.401 21.6904 183.292 21.2666C183.187 20.8382 183.03 20.4805 182.82 20.1934C182.615 19.9017 182.362 19.6829 182.061 19.5371C181.761 19.3867 181.421 19.3115 181.043 19.3115C180.665 19.3115 180.327 19.3867 180.031 19.5371C179.735 19.6829 179.482 19.9017 179.272 20.1934C179.067 20.4805 178.91 20.8382 178.801 21.2666C178.691 21.6904 178.637 22.1803 178.637 22.7363V23.2969C178.637 23.8529 178.691 24.3451 178.801 24.7734C178.91 25.2018 179.07 25.5641 179.279 25.8604C179.493 26.152 179.749 26.373 180.045 26.5234C180.341 26.6693 180.678 26.7422 181.057 26.7422C181.439 26.7422 181.779 26.6693 182.075 26.5234C182.371 26.373 182.622 26.152 182.827 25.8604C183.032 25.5641 183.187 25.2018 183.292 24.7734C183.401 24.3451 183.456 23.8529 183.456 23.2969Z" fill="white"/>
<path fill-rule="evenodd" clip-rule="evenodd" d="M31.5008 0.8125L22.843 2.94075C21.0222 3.38835 19.186 2.51118 18.3498 0.923908C7.76444 3.88336 0 13.5998 0 25.1296C0 34.6851 5.33289 42.995 13.1848 47.2454L22.5085 44.9534C24.6538 44.4261 26.8204 45.7377 27.3477 47.883L19.8956 49.7148C21.5844 50.0727 23.3359 50.261 25.1314 50.261C33.098 50.261 40.1989 46.5541 44.8032 40.771C45.2947 40.1537 44.769 39.266 43.9799 39.266C41.487 39.266 39.1298 38.6853 37.0361 37.6517C33.9371 40.5988 29.7455 42.4075 25.1314 42.4075C15.5891 42.4075 7.85355 34.6719 7.85355 25.1296C7.85355 15.5874 15.5891 7.85184 25.1314 7.85184C28.7146 7.85184 32.043 8.9426 34.8028 10.8102C36.6685 9.4648 38.8415 8.51887 41.1963 8.09773C42.043 7.94632 42.4484 6.89661 41.8051 6.32574C38.8946 3.74312 35.3804 1.82589 31.5008 0.8125Z" fill="white"/>
<path d="M28.1734 20.4192C29.4072 19.8202 30.7032 21.1162 30.1043 22.35L25.2997 32.2476C24.8659 33.1412 23.6805 33.3407 22.9781 32.6383L17.8852 27.5453C17.1827 26.8429 17.3822 25.6576 18.2759 25.2238L28.1734 20.4192Z" fill="white"/>
</svg>
