<svg width="50" height="51" viewBox="0 0 50 51" fill="none" xmlns="http://www.w3.org/2000/svg">
<path d="M42.823 38.3098L44.8543 36.2942C45.0635 36.1029 45.2167 35.8583 45.2975 35.5866C45.3783 35.3149 45.3837 35.0263 45.313 34.7518C45.2424 34.4772 45.0984 34.2271 44.8965 34.0281C44.6946 33.8292 44.4423 33.6889 44.1668 33.6223L34.7918 32.0598C34.5152 31.9651 34.2176 31.9499 33.9328 32.0159C33.648 32.082 33.3875 32.2265 33.1808 32.4332C32.9741 32.6399 32.8295 32.9005 32.7635 33.1853C32.6975 33.47 32.7127 33.7676 32.8074 34.0442L34.3699 43.4192C34.443 43.6826 34.5839 43.9223 34.7785 44.1142C34.9732 44.3061 35.2148 44.4436 35.4793 44.5129C35.6275 44.5492 35.7799 44.5649 35.9324 44.5598C36.138 44.561 36.3419 44.5216 36.5322 44.4438C36.7226 44.3661 36.8958 44.2515 37.0418 44.1067L39.0574 42.0754L41.073 44.1067C41.2183 44.2531 41.3911 44.3694 41.5815 44.4487C41.7719 44.528 41.9761 44.5689 42.1824 44.5689C42.3887 44.5689 42.5929 44.528 42.7833 44.4487C42.9737 44.3694 43.1465 44.2531 43.2918 44.1067L44.8543 42.5442C45.0007 42.3989 45.117 42.2261 45.1963 42.0357C45.2756 41.8453 45.3164 41.6411 45.3164 41.4348C45.3164 41.2286 45.2756 41.0243 45.1963 40.8339C45.117 40.6435 45.0007 40.4707 44.8543 40.3255L42.823 38.3098Z" fill="#525B58"/>
<path d="M35.4517 29.0562L38.2173 29.525C38.7767 27.8204 39.0615 26.0378 39.061 24.2437C39.067 20.4552 37.821 16.7708 35.5168 13.7635C33.2126 10.7561 29.9793 8.59439 26.3197 7.61434C22.6601 6.63429 18.7792 6.89086 15.2805 8.34415C11.7817 9.79744 8.86116 12.366 6.97293 15.6505C5.08469 18.935 4.33458 22.7514 4.83921 26.5062C5.34385 30.261 7.07496 33.7439 9.76338 36.4133C12.4518 39.0827 15.9469 40.789 19.7052 41.267C23.4635 41.7449 27.2744 40.9678 30.5454 39.0562L29.811 34.6969C29.627 33.919 29.645 33.1069 29.8633 32.3379C30.0816 31.5689 30.4929 30.8685 31.0581 30.3033C31.6233 29.7381 32.3237 29.3268 33.0927 29.1085C33.8617 28.8902 34.6738 28.8722 35.4517 29.0562ZM24.9985 22.6812C25.8273 22.6812 26.6222 23.0105 27.2082 23.5965C27.7943 24.1826 28.1235 24.9774 28.1235 25.8062V28.9312C28.1235 29.76 27.7943 30.5549 27.2082 31.141C26.6222 31.727 25.8273 32.0562 24.9985 32.0562H23.436V33.6187C23.436 34.0331 23.2714 34.4306 22.9784 34.7236C22.6854 35.0166 22.2879 35.1812 21.8735 35.1812C21.4591 35.1812 21.0617 35.0166 20.7687 34.7236C20.4757 34.4306 20.311 34.0331 20.311 33.6187V32.0562H18.7485C17.9197 32.0562 17.1249 31.727 16.5388 31.141C15.9528 30.5549 15.6235 29.76 15.6235 28.9312C15.6235 28.5168 15.7882 28.1194 16.0812 27.8264C16.3742 27.5334 16.7716 27.3687 17.186 27.3687C17.6004 27.3687 17.9979 27.5334 18.2909 27.8264C18.5839 28.1194 18.7485 28.5168 18.7485 28.9312H24.9985V25.8062H18.7485C17.9197 25.8062 17.1249 25.477 16.5388 24.891C15.9528 24.3049 15.6235 23.51 15.6235 22.6812V19.5562C15.6235 18.7274 15.9528 17.9326 16.5388 17.3465C17.1249 16.7605 17.9197 16.4312 18.7485 16.4312H20.311V14.8687C20.311 14.4543 20.4757 14.0569 20.7687 13.7639C21.0617 13.4709 21.4591 13.3062 21.8735 13.3062C22.2879 13.3062 22.6854 13.4709 22.9784 13.7639C23.2714 14.0569 23.436 14.4543 23.436 14.8687V16.4312H24.9985C25.8273 16.4312 26.6222 16.7605 27.2082 17.3465C27.7943 17.9326 28.1235 18.7274 28.1235 19.5562C28.1235 19.9706 27.9589 20.3681 27.6659 20.6611C27.3729 20.9541 26.9754 21.1187 26.561 21.1187C26.1466 21.1187 25.7492 20.9541 25.4562 20.6611C25.1632 20.3681 24.9985 19.9706 24.9985 19.5562H18.7485V22.6812H24.9985Z" fill="#525B58"/>
</svg>
