<svg width="40" height="41" viewBox="0 0 40 41" fill="none" xmlns="http://www.w3.org/2000/svg">
<path d="M28.016 16.9634C28.6023 15.7647 29.6185 14.8634 30.8823 14.4284C31.411 14.2459 31.956 14.1759 32.4985 14.1734V7.05469C32.4985 4.98719 30.816 3.30469 28.7485 3.30469H8.74854C6.68104 3.30469 4.99854 4.98719 4.99854 7.05469V32.0547C4.99854 34.1222 6.68104 35.8047 8.74854 35.8047H21.1848L21.0498 35.4122C20.506 33.8259 20.6123 32.1309 21.346 30.6322L28.016 16.9634ZM9.99854 10.8047H24.9985C25.6898 10.8047 26.2485 11.3647 26.2485 12.0547C26.2485 12.7447 25.6898 13.3047 24.9985 13.3047H9.99854C9.30729 13.3047 8.74854 12.7447 8.74854 12.0547C8.74854 11.3647 9.30729 10.8047 9.99854 10.8047ZM9.99854 15.8047H23.7485C24.4398 15.8047 24.9985 16.3647 24.9985 17.0547C24.9985 17.7447 24.4398 18.3047 23.7485 18.3047H9.99854C9.30729 18.3047 8.74854 17.7447 8.74854 17.0547C8.74854 16.3647 9.30729 15.8047 9.99854 15.8047ZM18.7485 28.3047H9.99854C9.30729 28.3047 8.74854 27.7447 8.74854 27.0547C8.74854 26.3647 9.30729 25.8047 9.99854 25.8047H18.7485C19.4398 25.8047 19.9985 26.3647 19.9985 27.0547C19.9985 27.7447 19.4398 28.3047 18.7485 28.3047ZM9.99854 23.3047C9.30729 23.3047 8.74854 22.7447 8.74854 22.0547C8.74854 21.3647 9.30729 20.8047 9.99854 20.8047H21.2485C21.9398 20.8047 22.4985 21.3647 22.4985 22.0547C22.4985 22.7447 21.9398 23.3047 21.2485 23.3047H9.99854ZM37.0035 21.3484L30.331 35.0222C29.8898 35.9234 29.126 36.5984 28.1798 36.9234L25.816 37.7359C25.6823 37.7822 25.5435 37.8047 25.4098 37.8047C24.891 37.8047 24.406 37.4797 24.2285 36.9609L23.4148 34.5972C23.0885 33.6472 23.1523 32.6297 23.5923 31.7309L30.2648 18.0597C30.556 17.4597 31.066 17.0097 31.6973 16.7922C32.3273 16.5747 33.006 16.6147 33.606 16.9097L35.8535 18.0059C36.4535 18.2984 36.9035 18.8084 37.121 19.4397C37.3385 20.0709 37.2973 20.7484 37.0035 21.3484Z" fill="#525B58"/>
</svg>
