<svg width="40" height="41" viewBox="0 0 40 41" fill="none" xmlns="http://www.w3.org/2000/svg">
<path d="M27.4985 28.3047C27.4985 28.6362 27.6302 28.9542 27.8647 29.1886C28.0991 29.423 28.417 29.5547 28.7485 29.5547H34.9985V27.0547H28.7485C28.417 27.0547 28.0991 27.1864 27.8647 27.4208C27.6302 27.6552 27.4985 27.9732 27.4985 28.3047Z" fill="#525B58"/>
<path d="M32.4985 18.5422V17.0547C32.4985 16.0601 32.1034 15.1063 31.4002 14.403C30.6969 13.6998 29.7431 13.3047 28.7485 13.3047H25.2985L22.7985 15.8047H28.7485C29.0801 15.8047 29.398 15.9364 29.6324 16.1708C29.8668 16.4052 29.9985 16.7232 29.9985 17.0547V18.3047H8.74854C8.41701 18.3047 8.09907 18.173 7.86465 17.9386C7.63023 17.7042 7.49854 17.3862 7.49854 17.0547C7.49854 16.7232 7.63023 16.4052 7.86465 16.1708C8.09907 15.9364 8.41701 15.8047 8.74854 15.8047H14.6985L12.1985 13.3047H8.74854C7.75397 13.3047 6.80015 13.6998 6.09688 14.403C5.39362 15.1063 4.99854 16.0601 4.99854 17.0547V34.5547C4.99854 35.5492 5.39362 36.5031 6.09688 37.2063C6.80015 37.9096 7.75397 38.3047 8.74854 38.3047H31.2485C32.2431 38.3047 33.1969 37.9096 33.9002 37.2063C34.6034 36.5031 34.9985 35.5492 34.9985 34.5547V32.0547H28.7485C27.754 32.0547 26.8001 31.6596 26.0969 30.9563C25.3936 30.2531 24.9985 29.2992 24.9985 28.3047C24.9985 27.3101 25.3936 26.3563 26.0969 25.653C26.8001 24.9498 27.754 24.5547 28.7485 24.5547H34.9985V22.0547C34.9938 21.2831 34.7512 20.5318 34.3038 19.9032C33.8564 19.2747 33.226 18.7994 32.4985 18.5422Z" fill="#525B58"/>
<path d="M17.8612 15.4422C17.9774 15.5593 18.1157 15.6523 18.268 15.7158C18.4203 15.7793 18.5837 15.8119 18.7487 15.8119C18.9137 15.8119 19.0771 15.7793 19.2294 15.7158C19.3818 15.6523 19.52 15.5593 19.6362 15.4422L23.3862 11.6922C23.5597 11.5164 23.6772 11.2932 23.7239 11.0507C23.7706 10.8082 23.7444 10.5573 23.6487 10.3297C23.5549 10.1014 23.3957 9.90601 23.191 9.76809C22.9864 9.63017 22.7455 9.55592 22.4987 9.55469H19.9987V4.55469C19.9987 4.22317 19.867 3.90522 19.6326 3.6708C19.3982 3.43638 19.0802 3.30469 18.7487 3.30469C18.4172 3.30469 18.0992 3.43638 17.8648 3.6708C17.6304 3.90522 17.4987 4.22317 17.4987 4.55469V9.55469H14.9987C14.7519 9.55592 14.511 9.63017 14.3064 9.76809C14.1017 9.90601 13.9425 10.1014 13.8487 10.3297C13.753 10.5573 13.7268 10.8082 13.7735 11.0507C13.8203 11.2932 13.9378 11.5164 14.1112 11.6922L17.8612 15.4422Z" fill="#525B58"/>
</svg>
