<svg width="40" height="41" viewBox="0 0 40 41" fill="none" xmlns="http://www.w3.org/2000/svg">
<g clip-path="url(#clip0_0_727)">
<path d="M19.9985 16.9465C23.7523 16.9465 26.7954 13.9035 26.7954 10.1497C26.7954 6.39585 23.7523 3.35278 19.9985 3.35278C16.2447 3.35278 13.2017 6.39585 13.2017 10.1497C13.2017 13.9035 16.2447 16.9465 19.9985 16.9465Z" fill="#525B58"/>
<path d="M33.7485 16.9465C36.1216 16.9465 38.0454 15.0228 38.0454 12.6497C38.0454 10.2766 36.1216 8.35278 33.7485 8.35278C31.3754 8.35278 29.4517 10.2766 29.4517 12.6497C29.4517 15.0228 31.3754 16.9465 33.7485 16.9465Z" fill="#525B58"/>
<path d="M6.24854 16.9465C8.62163 16.9465 10.5454 15.0228 10.5454 12.6497C10.5454 10.2766 8.62163 8.35278 6.24854 8.35278C3.87544 8.35278 1.95166 10.2766 1.95166 12.6497C1.95166 15.0228 3.87544 16.9465 6.24854 16.9465Z" fill="#525B58"/>
<path d="M10.4821 20.8052C8.79072 19.4194 7.25893 19.6029 5.30322 19.6029C2.37822 19.6029 -0.00146484 21.9685 -0.00146484 24.8755V33.4076C-0.00146484 34.6701 1.029 35.6966 2.29619 35.6966C7.76697 35.6966 7.10791 35.7956 7.10791 35.4607C7.10791 29.4149 6.39182 24.9812 10.4821 20.8052Z" fill="#525B58"/>
<path d="M21.8589 19.6339C18.443 19.349 15.4738 19.6372 12.9128 21.7511C8.62712 25.1839 9.45189 29.806 9.45189 35.4605C9.45189 36.9565 10.6691 38.1964 12.1878 38.1964C28.6786 38.1964 29.3349 38.7284 30.3128 36.5628C30.6335 35.8305 30.5456 36.0632 30.5456 29.0574C30.5456 23.4928 25.7274 19.6339 21.8589 19.6339Z" fill="#525B58"/>
<path d="M34.694 19.6027C32.7276 19.6027 31.2043 19.4211 29.5151 20.805C33.5749 24.95 32.8894 29.0812 32.8894 35.4605C32.8894 35.7975 32.3422 35.6964 37.619 35.6964C38.9315 35.6964 39.9987 34.6332 39.9987 33.3261V24.8753C39.9987 21.9683 37.619 19.6027 34.694 19.6027Z" fill="#525B58"/>
</g>
<defs>
<clipPath id="clip0_0_727">
<rect x="-0.00146484" y="0.804688" width="40" height="40" fill="white"/>
</clipPath>
</defs>
</svg>
