<svg width="40" height="40" viewBox="0 0 40 40" fill="none" xmlns="http://www.w3.org/2000/svg">
<path d="M34.8297 5.35156H5.17031C2.83594 5.35156 0.9375 7.51016 0.9375 10.1641V10.8203H39.0625V10.1641C39.0625 7.51016 37.1641 5.35156 34.8297 5.35156ZM6.13281 9.6875C5.87013 9.6875 5.61335 9.60961 5.39495 9.46367C5.17654 9.31773 5.00631 9.11031 4.90579 8.86763C4.80526 8.62494 4.77896 8.3579 4.83021 8.10027C4.88145 7.84264 5.00794 7.60599 5.19369 7.42025C5.37943 7.23451 5.61608 7.10802 5.87371 7.05677C6.13134 7.00552 6.39838 7.03182 6.64106 7.13235C6.88375 7.23287 7.09117 7.4031 7.23711 7.62151C7.38304 7.83992 7.46094 8.0967 7.46094 8.35938C7.46094 8.71162 7.32101 9.04943 7.07194 9.2985C6.82287 9.54757 6.48505 9.6875 6.13281 9.6875ZM10.0391 9.6875C9.77638 9.6875 9.5196 9.60961 9.3012 9.46367C9.08279 9.31773 8.91256 9.11031 8.81203 8.86763C8.71151 8.62494 8.68521 8.3579 8.73646 8.10027C8.7877 7.84264 8.91419 7.60599 9.09994 7.42025C9.28568 7.23451 9.52233 7.10802 9.77996 7.05677C10.0376 7.00552 10.3046 7.03182 10.5473 7.13235C10.79 7.23287 10.9974 7.4031 11.1434 7.62151C11.2893 7.83992 11.3672 8.0967 11.3672 8.35938C11.3672 8.71162 11.2273 9.04943 10.9782 9.2985C10.7291 9.54757 10.3913 9.6875 10.0391 9.6875ZM13.9453 9.6875C13.6826 9.6875 13.4259 9.60961 13.2074 9.46367C12.989 9.31773 12.8188 9.11031 12.7183 8.86763C12.6178 8.62494 12.5915 8.3579 12.6427 8.10027C12.694 7.84264 12.8204 7.60599 13.0062 7.42025C13.1919 7.23451 13.4286 7.10802 13.6862 7.05677C13.9438 7.00552 14.2109 7.03182 14.4536 7.13235C14.6962 7.23287 14.9037 7.4031 15.0496 7.62151C15.1955 7.83992 15.2734 8.0967 15.2734 8.35938C15.2734 8.71162 15.1335 9.04943 14.8844 9.2985C14.6354 9.54757 14.2976 9.6875 13.9453 9.6875ZM34.0625 9.49219H20.7031C20.4027 9.49219 20.1145 9.37284 19.9021 9.16039C19.6897 8.94795 19.5703 8.65982 19.5703 8.35938C19.5703 8.05893 19.6897 7.7708 19.9021 7.55836C20.1145 7.34591 20.4027 7.22656 20.7031 7.22656H34.0625C34.3629 7.22656 34.6511 7.34591 34.8635 7.55836C35.076 7.7708 35.1953 8.05893 35.1953 8.35938C35.1953 8.65982 35.076 8.94795 34.8635 9.16039C34.6511 9.37284 34.3629 9.49219 34.0625 9.49219Z" fill="#2F3231"/>
<path d="M5.17031 34.6484H34.8297C35.952 34.6474 37.028 34.2011 37.8216 33.4075C38.6152 32.614 39.0615 31.5379 39.0625 30.4156V11.7578H0.9375V30.4156C0.938534 31.5379 1.38482 32.614 2.1784 33.4075C2.97199 34.2011 4.04802 34.6474 5.17031 34.6484ZM22.4609 29.2625C22.4601 29.8931 22.2092 30.4976 21.7632 30.9435C21.3172 31.3893 20.7126 31.64 20.082 31.6406H19.9219C19.2913 31.64 18.6867 31.3893 18.2407 30.9435C17.7947 30.4976 17.5438 29.8931 17.543 29.2625V25.1125C17.5438 24.4819 17.7947 23.8774 18.2407 23.4315C18.6867 22.9857 19.2913 22.735 19.9219 22.7344H20.0859C20.7165 22.735 21.3211 22.9857 21.7671 23.4315C22.2131 23.8774 22.464 24.4819 22.4648 25.1125L22.4609 29.2625ZM30.4297 22.9297V29.1797C30.4297 29.8324 30.1704 30.4583 29.7089 30.9198C29.2474 31.3813 28.6214 31.6406 27.9688 31.6406C27.3161 31.6406 26.6901 31.3813 26.2286 30.9198C25.7671 30.4583 25.5078 29.8324 25.5078 29.1797V22.9297C25.5078 22.277 25.7671 21.6511 26.2286 21.1895C26.6901 20.728 27.3161 20.4688 27.9688 20.4688C28.6214 20.4688 29.2474 20.728 29.7089 21.1895C30.1704 21.6511 30.4297 22.277 30.4297 22.9297ZM11.25 19.4016C11.2637 19.2781 11.3259 19.1651 11.4229 19.0875C11.5199 19.0099 11.6437 18.9739 11.7672 18.9875C14.4299 19.2829 17.1209 19.204 19.7617 18.7531C21.9072 18.3873 24.004 17.7784 26.0117 16.9383L25.7602 16.3977C25.7187 16.3078 25.7047 16.2078 25.7199 16.11C25.7351 16.0123 25.7788 15.9212 25.8455 15.8482C25.9123 15.7752 25.9991 15.7235 26.0951 15.6997C26.1911 15.6758 26.292 15.6808 26.3852 15.7141L27.8125 16.2344C27.9366 16.2803 28.0374 16.3734 28.093 16.4935C28.1487 16.6135 28.1545 16.7507 28.1094 16.875L27.593 18.2922C27.559 18.3853 27.4981 18.4663 27.4181 18.5249C27.3381 18.5835 27.2425 18.617 27.1434 18.6213C27.0443 18.6256 26.9462 18.6004 26.8614 18.5489C26.7767 18.4974 26.7091 18.4219 26.6672 18.332L26.4141 17.7852C24.3294 18.6627 22.1512 19.2988 19.9219 19.6812C18.2791 19.9606 16.6156 20.1009 14.9492 20.1008C13.8529 20.101 12.7575 20.0402 11.668 19.9188C11.6065 19.9124 11.5469 19.894 11.4925 19.8645C11.4382 19.8351 11.3902 19.7952 11.3514 19.7471C11.3126 19.699 11.2836 19.6438 11.2662 19.5845C11.2488 19.5252 11.2433 19.463 11.25 19.4016ZM9.57031 24.4922C9.57031 23.8395 9.82959 23.2136 10.2911 22.752C10.7526 22.2905 11.3786 22.0313 12.0312 22.0312C12.6839 22.0313 13.3099 22.2905 13.7714 22.752C14.2329 23.2136 14.4922 23.8395 14.4922 24.4922V29.1797C14.4922 29.8324 14.2329 30.4583 13.7714 30.9198C13.3099 31.3813 12.6839 31.6406 12.0312 31.6406C11.3786 31.6406 10.7526 31.3813 10.2911 30.9198C9.82959 30.4583 9.57031 29.8324 9.57031 29.1797V24.4922Z" fill="#2F3231"/>
</svg>
