<svg width="40" height="40" viewBox="0 0 40 40" fill="none" xmlns="http://www.w3.org/2000/svg">
<path d="M8.28125 14.1406H35.2344V5.9375C35.2344 3.99586 33.6604 2.42188 31.7188 2.42188H3.51562C1.57398 2.42188 0 3.99586 0 5.9375V24.6875C0 26.6291 1.57398 28.2031 3.51562 28.2031H4.76562V34.0625C4.76562 34.5363 5.05055 34.9643 5.48891 35.1451C5.92078 35.3253 6.42773 35.2293 6.76609 34.891L13.454 28.2031H16.4844V21.1719H8.28125C7.63352 21.1719 7.10938 20.6477 7.10938 20C7.10938 19.3523 7.63352 18.8281 8.28125 18.8281H16.603C16.7805 17.9568 17.1679 17.169 17.6862 16.4844H8.28125C7.63352 16.4844 7.10938 15.9602 7.10938 15.3125C7.10938 14.6648 7.63352 14.1406 8.28125 14.1406ZM8.28125 9.45312H27.0312C27.679 9.45312 28.2031 9.97727 28.2031 10.625C28.2031 11.2727 27.679 11.7969 27.0312 11.7969H8.28125C7.63352 11.7969 7.10938 11.2727 7.10938 10.625C7.10938 9.97727 7.63352 9.45312 8.28125 9.45312Z" fill="white"/>
<path d="M36.4844 16.4844H22.3438C20.4052 16.4844 18.8281 18.0614 18.8281 20V29.375C18.8281 31.3136 20.4052 32.8906 22.3438 32.8906H28.8898L33.2339 37.2348C33.5722 37.573 34.0792 37.6691 34.5111 37.4888C34.9494 37.308 35.2344 36.88 35.2344 36.4062V32.8906H36.4844C38.423 32.8906 40 31.3136 40 29.375V20C40 18.0614 38.423 16.4844 36.4844 16.4844ZM32.5473 24.3441L29.0316 27.8598C28.5739 28.3175 27.8323 28.3175 27.3745 27.8598L25.6167 26.102C25.159 25.6442 25.159 24.9026 25.6167 24.4448C26.0745 23.9871 26.8161 23.9871 27.2738 24.4448L28.2031 25.3741L30.8902 22.687C31.348 22.2293 32.0896 22.2293 32.5473 22.687C33.0051 23.1448 33.0051 23.8864 32.5473 24.3441Z" fill="white"/>
</svg>
