<svg width="40" height="40" viewBox="0 0 40 40" fill="none" xmlns="http://www.w3.org/2000/svg">
<path d="M28.4573 5.18925C27.712 4.71489 26.8089 4.55579 25.9464 4.74693C25.0839 4.93806 24.3325 5.46378 23.8573 6.20858L23.138 7.33325C22.663 8.07886 22.5036 8.98263 22.695 9.84573C22.8863 10.7088 23.4127 11.4606 24.1583 11.9356C24.9039 12.4106 25.8077 12.5699 26.6708 12.3786C27.5339 12.1872 28.2857 11.6609 28.7607 10.9152L29.478 9.79125C29.9515 9.04523 30.1099 8.14196 29.9186 7.27935C29.7272 6.41674 29.2018 5.66515 28.4573 5.18925Z" fill="#2F3231"/>
<path d="M29.0034 23.7866C29.1758 23.4874 29.281 23.1544 29.3117 22.8105C29.3424 22.4666 29.298 22.1202 29.1814 21.7952L26.9261 15.4912C26.8475 15.305 26.7143 15.1469 26.5441 15.0379L20.3441 11.0892L18.6487 9.92189C18.4419 9.77959 18.2654 9.59765 18.1295 9.38663C17.9936 9.1756 17.9008 8.93969 17.8568 8.69257C17.8127 8.44545 17.8181 8.19204 17.8726 7.94702C17.9272 7.70201 18.0299 7.47026 18.1747 7.26522L21.1334 3.06656C21.2916 2.82837 21.3511 2.53804 21.2994 2.25682C21.2476 1.9756 21.0886 1.72548 20.8559 1.55924C20.6233 1.39301 20.3351 1.32365 20.0523 1.36582C19.7695 1.40798 19.5141 1.55836 19.3401 1.78522L15.7701 6.64056C15.3148 7.26097 15.1019 8.02638 15.1715 8.79276C15.2412 9.55914 15.5884 10.2737 16.1481 10.8019L18.7294 13.2352C18.8422 13.3415 18.9144 13.4838 18.9336 13.6376C18.9528 13.7914 18.9179 13.9471 18.8347 14.0779L15.4281 19.4312C14.4396 20.9654 13.738 22.6663 13.3574 24.4512L10.6974 37.0572C10.6602 37.2281 10.6572 37.4046 10.6887 37.5767C10.7202 37.7487 10.7855 37.9127 10.8807 38.0594C10.976 38.206 11.0995 38.3323 11.2439 38.4309C11.3883 38.5295 11.5508 38.5985 11.7221 38.6339C11.8935 38.6717 12.0708 38.6751 12.2436 38.6439C12.4165 38.6126 12.5813 38.5474 12.7288 38.452C12.8762 38.3565 13.0032 38.2328 13.1024 38.0879C13.2016 37.943 13.271 37.7798 13.3067 37.6079C13.3114 37.5879 16.0607 26.3806 16.0907 26.2579C16.1588 25.9807 16.3195 25.735 16.5462 25.5615C16.7729 25.3881 17.052 25.2972 17.3374 25.3039C17.6207 25.2983 17.8975 25.3896 18.122 25.5625C18.3464 25.7355 18.5052 25.9798 18.5721 26.2552L21.3521 37.5886C21.4136 37.8908 21.577 38.1627 21.8149 38.3589C22.0529 38.5552 22.351 38.6637 22.6594 38.6666C22.7491 38.6679 22.8386 38.6585 22.9261 38.6386C23.1015 38.6044 23.2682 38.5354 23.4164 38.4355C23.5646 38.3356 23.6912 38.207 23.7887 38.0572C23.8838 37.9115 23.9489 37.7484 23.9803 37.5773C24.0116 37.4061 24.0086 37.2305 23.9714 37.0606L21.5087 26.0526C21.2896 25.0995 21.2726 24.111 21.4589 23.151C21.6451 22.1909 22.0305 21.2806 22.5901 20.4786L24.4794 17.6552C24.5471 17.5523 24.6424 17.4705 24.7544 17.4191C24.8664 17.3677 24.9905 17.3488 25.1127 17.3646C25.2349 17.3792 25.3506 17.4274 25.4471 17.5037C25.5436 17.5801 25.6171 17.6817 25.6594 17.7972L27.1394 21.8446C27.1719 21.9334 27.185 22.0281 27.1781 22.1224C27.1711 22.2168 27.1442 22.3085 27.099 22.3916C27.0539 22.4747 26.9916 22.5473 26.9162 22.6044C26.8409 22.6616 26.7542 22.7021 26.6621 22.7232L23.4794 23.4532C23.2793 23.5057 23.0984 23.6142 22.958 23.766C22.8176 23.9179 22.7235 24.1067 22.6869 24.3103C22.6502 24.5138 22.6725 24.7236 22.7512 24.9149C22.8298 25.1062 22.9615 25.271 23.1307 25.3899C23.2482 25.473 23.3813 25.5317 23.5219 25.5625C23.6625 25.5933 23.8079 25.5956 23.9494 25.5692L27.3727 24.9392C27.7119 24.877 28.0335 24.7416 28.3151 24.5426C28.5967 24.3435 28.8316 24.0855 29.0034 23.7866Z" fill="#2F3231"/>
</svg>
