<svg width="40" height="40" viewBox="0 0 40 40" fill="none" xmlns="http://www.w3.org/2000/svg">
<g clip-path="url(#clip0_0_312)">
<path d="M7.42188 12.6562C9.3635 12.6562 10.9375 11.0823 10.9375 9.14062C10.9375 7.199 9.3635 5.625 7.42188 5.625C5.48025 5.625 3.90625 7.199 3.90625 9.14062C3.90625 11.0823 5.48025 12.6562 7.42188 12.6562Z" fill="#2F3231"/>
<path d="M38.8281 0H1.17188C0.524687 0 0 0.524687 0 1.17188C0 1.81906 0.524687 2.34375 1.17188 2.34375H3.125V5.16258C4.19594 4.00656 5.72547 3.28125 7.42188 3.28125C10.6527 3.28125 13.2812 5.90977 13.2812 9.14062C13.2812 9.54188 13.2405 9.93375 13.1634 10.3125H20.3125C21.1805 10.3125 21.9938 10.5505 22.6917 10.9635L27.687 5.9682C28.1447 5.51055 28.8866 5.51055 29.3443 5.9682C29.802 6.42586 29.802 7.16781 29.3443 7.62547L24.349 12.6208C24.762 13.3188 25 14.132 25 15C25 17.5847 22.8972 19.6875 20.3125 19.6875H16.0156V24.375H18.8281V26.9203C17.4641 27.4041 16.4844 28.7066 16.4844 30.2344C16.4844 32.1729 18.0615 33.75 20 33.75C21.9385 33.75 23.5156 32.1729 23.5156 30.2344C23.5156 28.7066 22.5359 27.4041 21.1719 26.9203V24.375H35.7031C36.3503 24.375 36.875 23.8503 36.875 23.2031V2.34375H38.8281C39.4753 2.34375 40 1.81906 40 1.17188C40 0.524687 39.4753 0 38.8281 0ZM20 31.4062C19.3538 31.4062 18.8281 30.8805 18.8281 30.2344C18.8281 29.5882 19.3538 29.0625 20 29.0625C20.6462 29.0625 21.1719 29.5882 21.1719 30.2344C21.1719 30.8805 20.6462 31.4062 20 31.4062Z" fill="#2F3231"/>
<path d="M3.06014 38.897C3.09663 39.5163 3.60952 40 4.23006 40H9.44202C10.0625 40 10.5755 39.5163 10.6119 38.897L11.2593 27.8906H2.41272L3.06014 38.897Z" fill="#2F3231"/>
<path d="M22.6562 15C22.6562 13.7055 21.607 12.6562 20.3125 12.6562H12.1062C11.0361 14.0784 9.33469 15 7.42188 15C5.79703 15 4.325 14.3348 3.26258 13.263C1.32961 14.2205 0 16.2123 0 18.5156V24.375C0 25.0222 0.524687 25.5469 1.17188 25.5469H12.5C13.1472 25.5469 13.6719 25.0222 13.6719 24.375V18.5156C13.6719 17.8684 14.1966 17.3438 14.8438 17.3438H20.3125C21.607 17.3438 22.6562 16.2945 22.6562 15Z" fill="#2F3231"/>
</g>
<defs>
<clipPath id="clip0_0_312">
<rect width="40" height="40" fill="white"/>
</clipPath>
</defs>
</svg>
