<svg width="124" height="30" viewBox="0 0 124 30" fill="none" xmlns="http://www.w3.org/2000/svg">
<g opacity="0.2" clip-path="url(#clip0_0_987)">
<path d="M7.23465 6.64944H-0.00598145V0.0410156H22.4234V6.64944H15.1742L15.1776 26.0157H7.23979L7.23465 6.64944Z" fill="white"/>
<path d="M29.0294 17.5276C28.1576 17.9576 27.176 18.206 26.1997 18.4184C24.6015 18.7729 23.7656 19.1652 23.7604 20.4327C23.7553 21.3046 24.6923 22.1782 25.9958 22.1868C27.6265 22.1953 28.8993 21.2258 29.0209 19.268L29.0294 17.5276ZM35.8915 21.8099C35.8812 23.2231 35.9446 24.8178 36.7343 26.0186L29.4149 25.9757C29.2367 25.467 29.1322 24.7048 29.1733 24.1994H29.0997C27.5683 25.9295 25.3552 26.4228 23.0341 26.4108C19.4112 26.3886 16.4136 24.6328 16.4359 20.6828C16.4718 14.739 23.4298 14.9977 27.0921 14.3313C28.0719 14.1549 29.0517 13.8706 29.0569 12.675C29.0654 11.4057 27.8732 10.9261 26.7135 10.9209C24.5038 10.9107 24.0602 12.0292 24.0208 12.8257L17.3523 12.788C17.5989 7.49853 22.6042 6.65748 27.063 6.68318C36.0491 6.73628 35.9566 10.4687 35.9326 14.0915L35.8915 21.8099Z" fill="white"/>
<path d="M46.9534 12.0178C44.3805 12.0024 43.7879 14.4279 43.7742 16.6358C43.7605 18.8815 44.3274 21.3155 46.8986 21.3309C49.4731 21.3446 50.0658 18.9209 50.0795 16.6718C50.0932 14.4639 49.5262 12.0298 46.9534 12.0178ZM36.9498 0H44.1236L44.0722 9.31997H44.1442C45.2404 7.7321 47.1658 6.80027 49.3053 6.81226C55.6089 6.84995 57.2808 12.2217 57.2551 16.6444C57.2277 21.3549 54.624 26.593 49.2984 26.5639C45.7834 26.5416 44.7043 25.1953 43.805 23.9928H43.733L43.7193 26.0158H36.9498V0Z" fill="white"/>
<path d="M67.3192 5.263C64.6007 5.24587 64.2221 7.89061 64.2101 9.88273C64.1999 11.8749 64.5459 14.5607 67.2626 14.5761C69.9794 14.5915 70.3596 11.9125 70.3716 9.91699C70.3836 7.92487 70.0359 5.27841 67.3192 5.263ZM67.2335 19.7937C60.1659 19.7525 57.0038 15.0592 57.0363 9.84162C57.0672 4.62237 60.2806 0.0043476 67.3483 0.0471705C74.4159 0.0865675 77.578 4.74227 77.5472 9.96152C77.5146 15.1774 74.3011 19.8348 67.2335 19.7937Z" fill="white"/>
<path d="M85.1244 5.26176C82.4076 5.24463 82.0291 7.88937 82.0188 9.8832C82.0051 11.8753 82.3528 14.5595 85.0713 14.5749C87.7863 14.592 88.1666 11.9113 88.1786 9.91746C88.1888 7.92534 87.8411 5.27717 85.1244 5.26176ZM85.0387 19.7941C77.9728 19.7513 74.8107 15.0579 74.8433 9.84038C74.8724 4.62284 78.0876 0.00310765 85.1535 0.0442176C92.2194 0.0853276 95.3815 4.74103 95.3524 9.95857C95.3216 15.1795 92.1064 19.8335 85.0387 19.7941Z" fill="white"/>
<path d="M96.1306 0.046875H103.154V26.0164H96.1306V0.046875Z" fill="white"/>
<path d="M116.229 17.4651C115.357 17.8933 114.375 18.1417 113.399 18.3523C111.799 18.7069 110.966 19.1009 110.958 20.3684C110.953 21.2386 111.89 22.1122 113.193 22.1208C114.826 22.1293 116.098 21.1598 116.218 19.202L116.229 17.4651ZM123.135 21.7422C123.128 23.1554 123.05 24.8135 123.841 26.0142H116.629C116.453 25.5055 116.331 24.6387 116.372 24.1334L116.299 24.1317C114.767 25.8618 112.556 26.3568 110.235 26.3431C106.61 26.3191 103.613 24.5634 103.637 20.6134C103.673 14.6696 110.627 14.9299 114.291 14.2636C115.271 14.0872 116.251 13.8028 116.258 12.6072C116.266 11.338 115.074 10.8601 113.913 10.8532C111.701 10.8412 111.261 11.9615 111.222 12.758L104.55 12.722C104.798 7.43251 109.805 6.58976 114.262 6.61888C123.248 6.66855 123.156 10.4027 123.133 14.0255V21.7422H123.135Z" fill="white"/>
<path d="M59.7281 19.7959C64.8224 22.0724 70.1086 23.083 75.8692 23.1155C81.9211 23.1515 86.5101 22.009 92.3187 19.7959L92.2844 26.0652C87.0856 28.6431 81.4466 30.034 75.8281 30.0014C69.7043 29.9655 65.2918 28.7082 59.6904 26.0652L59.7281 19.7959Z" fill="white"/>
</g>
<defs>
<clipPath id="clip0_0_987">
<rect width="123.85" height="30" fill="white"/>
</clipPath>
</defs>
</svg>
