<svg width="135" height="30" viewBox="0 0 135 30" fill="none" xmlns="http://www.w3.org/2000/svg">
<g opacity="0.2">
<path d="M0 0V6.20133H7.26387V29.8311H14.5307V6.36876H20.4436L22.4711 0.000194579L0 0ZM59.4726 0V6.20133H66.7365V29.8311H74.0033V6.36876H79.9161L81.9433 0.000194579L59.4726 0ZM23.8239 3.51914C23.8239 1.57598 25.4098 0 27.3692 0C29.3302 0 30.9179 1.57598 30.9179 3.51914C30.9179 5.4625 29.3312 7.03848 27.3692 7.03848C25.4098 7.03751 23.8239 5.4625 23.8239 3.51914ZM23.8239 9.55304H30.9179V29.8311H23.8239V9.55304ZM33.9596 0V29.8309H41.0563V22.1225L43.2529 20.1097L50.1792 29.9984H57.7816L47.8124 15.5858L56.7673 6.87008H48.151L41.0563 13.9086V0H33.9596ZM110.495 0V29.8309H117.593V22.1225L119.789 20.1097L126.717 29.9984H134.32L124.351 15.5858L133.306 6.87008H124.69L117.593 13.9086V0H110.495Z" fill="white"/>
<path d="M93.9402 30.0001C100.752 30.0001 106.275 24.5225 106.275 17.7661C106.275 11.0099 100.752 5.53125 93.9402 5.53125H93.7718C86.9597 5.53125 81.4375 11.0097 81.4375 17.7661C81.4375 24.5225 86.9597 30.0001 93.7718 30.0001H93.9402ZM87.8578 17.7661C87.8578 14.4796 90.5445 11.8175 93.8574 11.8175C97.168 11.8175 99.8545 14.4796 99.8545 17.7661C99.8545 21.0526 97.168 23.7163 93.8574 23.7163C90.5445 23.7157 87.8578 21.0526 87.8578 17.7661Z" fill="white"/>
</g>
</svg>
