<svg width="32" height="32" viewBox="0 0 32 32" fill="none" xmlns="http://www.w3.org/2000/svg">
<g clip-path="url(#clip0_21_26)">
<path d="M21.4994 14.1319C21.4979 14.1303 21.4963 14.1287 21.4947 14.1271L16.6003 9.2263C16.5614 9.18762 16.5184 9.15326 16.4721 9.1238L16.3312 9.04693L16.2351 9.01489H16.1646C16.0566 8.99504 15.9459 8.99504 15.8379 9.01489H15.7739H15.697L15.5881 9.07254C15.5274 9.10552 15.4713 9.14645 15.4215 9.19425L10.5079 14.1271C10.1788 14.4536 10.1767 14.9849 10.5031 15.314C10.5047 15.3156 10.5063 15.3171 10.5079 15.3187C10.8395 15.6352 11.3613 15.6352 11.693 15.3187L14.6207 12.3974C14.747 12.2736 14.9498 12.2756 15.0737 12.4019C15.1313 12.4607 15.1641 12.5394 15.1652 12.6217V22.1607C15.1652 22.6242 15.5409 23 16.0044 23C16.4679 23 16.8437 22.6243 16.8437 22.1608V22.1607V12.6217C16.8462 12.4448 16.9916 12.3034 17.1685 12.3059C17.2508 12.307 17.3295 12.3398 17.3883 12.3974L20.3032 15.3187C20.6357 15.6393 21.1622 15.6393 21.4947 15.3187C21.8238 14.9923 21.8259 14.4609 21.4994 14.1319Z" fill="#38CC96"/>
</g>
<rect width="32" height="32" rx="16" fill="#73F2C4" fill-opacity="0.2"/>
<defs>
<clipPath id="clip0_21_26">
<rect width="14" height="14" fill="white" transform="translate(9 9)"/>
</clipPath>
</defs>
</svg>
